<svg xmlns="http://www.w3.org/2000/svg" xmlns:xlink="http://www.w3.org/1999/xlink" xmlns:lucid="lucid" width="1419" height="1325"><g transform="translate(-189 -11)" lucid:page-tab-id="0_0"><path d="M453.15 36.42c0-4.42 3.58-8 8-8h836.75c4.4 0 8 3.58 8 8V67.9c0 4.42-3.6 8-8 8H461.15c-4.42 0-8-3.58-8-8z" stroke="#000" stroke-opacity="0" stroke-width="2" fill="#fff" fill-opacity="0"/><use xlink:href="#a" transform="matrix(1,0,0,1,457.14655278534315,32.418805989050085) translate(378.3717283950617 25.45777777777778)"/><path d="M725.65 74.35h317.57M725.68 74.35h-1.03M1043.2 74.35h1.02" stroke="#a9afb8" stroke-width="2" fill="none"/><path d="M453.15 80.74c0-4.42 3.58-8 8-8h837.7c4.42 0 8 3.58 8 8v2.84c0 4.42-3.58 8-8 8h-837.7c-4.42 0-8-3.58-8-8z" stroke="#000" stroke-opacity="0" stroke-width="2" fill="#fff" fill-opacity="0"/><use xlink:href="#b" transform="matrix(1,0,0,1,457.1465527853436,76.73641796761589) translate(295.72358024691357 20.45777777777778)"/><use xlink:href="#c" transform="matrix(1,0,0,1,457.1465527853436,76.73641796761589) translate(361.03222222222223 20.45777777777778)"/><use xlink:href="#d" transform="matrix(1,0,0,1,457.1465527853436,76.73641796761589) translate(398.06925925925924 20.45777777777778)"/><use xlink:href="#e" transform="matrix(1,0,0,1,457.1465527853436,76.73641796761589) translate(416.1556790123457 20.45777777777778)"/><use xlink:href="#f" transform="matrix(1,0,0,1,457.1465527853436,76.73641796761589) translate(470.4766666666667 20.45777777777778)"/><use xlink:href="#g" transform="matrix(1,0,0,1,457.1465527853436,76.73641796761589) translate(507.5137037037037 20.45777777777778)"/><path d="M885 333.47v17.46c0 6.63-5.37 12-12 12H537c-6.63 0-12 5.37-12 12v1.57" stroke="#333" fill="none"/><path d="M885.5 333.48h-1v-.5h1z" fill="#333"/><path d="M525 391.27L520.36 377h9.28z" stroke="#333" fill="#333"/><path d="M885 333.47v41.46" stroke="#333" fill="none"/><path d="M885.5 333.48h-1v-.5h1z" fill="#333"/><path d="M885 389.7l-4.64-14.27h9.28z" stroke="#333" fill="#333"/><path d="M404.27 393.4c-16.17 0-29.27 13.1-29.27 29.26v87.8c0 16.17 13.1 29.27 29.27 29.27h241.46c16.17 0 29.27-13.1 29.27-29.27v-87.8c0-16.17-13.1-29.27-29.27-29.27z" stroke="#333" fill="#c064c3" fill-opacity=".76"/><path d="M375 437.4h300" stroke="#333" fill="none"/><use xlink:href="#h" transform="matrix(1,0,0,1,435,393.3870385761592) translate(8.611111111111114 26.444444444444443)"/><use xlink:href="#i" transform="matrix(1,0,0,1,435,393.3870385761592) translate(61.635802469135804 26.444444444444443)"/><use xlink:href="#j" transform="matrix(1,0,0,1,405,453.3870385761592) translate(25.29506172839506 28.211111111111112)"/><use xlink:href="#k" transform="matrix(1,0,0,1,405,453.3870385761592) translate(51.838271604938264 28.211111111111112)"/><use xlink:href="#l" transform="matrix(1,0,0,1,405,453.3870385761592) translate(178.8135802469136 28.211111111111112)"/><use xlink:href="#j" transform="matrix(1,0,0,1,405,453.3870385761592) translate(26.437037037037047 54.87777777777778)"/><use xlink:href="#m" transform="matrix(1,0,0,1,405,453.3870385761592) translate(52.98024691358025 54.87777777777778)"/><use xlink:href="#n" transform="matrix(1,0,0,1,405,453.3870385761592) translate(123.28888888888889 54.87777777777778)"/><use xlink:href="#o" transform="matrix(1,0,0,1,405,453.3870385761592) translate(147.98024691358026 54.87777777777778)"/><path d="M763.64 391.8c-26.86 0-48.64 21.8-48.64 48.65v145.93c0 26.86 21.78 48.64 48.64 48.64h242.72c26.86 0 48.64-21.78 48.64-48.64V440.45c0-26.86-21.78-48.64-48.64-48.64z" stroke="#333" fill="#5abaa7" fill-opacity=".76"/><path d="M715 435.8h340" stroke="#333" fill="none"/><use xlink:href="#p" transform="matrix(1,0,0,1,783,391.8144576776556) translate(26.75308641975309 26.444444444444443)"/><use xlink:href="#q" transform="matrix(1,0,0,1,783,391.8144576776556) translate(126.69135802469137 26.444444444444443)"/><use xlink:href="#r" transform="matrix(1,0,0,1,749,451.8144576776556) translate(23.146913580246917 35.1111111111111)"/><use xlink:href="#s" transform="matrix(1,0,0,1,749,451.8144576776556) translate(144.01111111111112 35.1111111111111)"/><use xlink:href="#t" transform="matrix(1,0,0,1,749,451.8144576776556) translate(164.99876543209876 35.1111111111111)"/><use xlink:href="#j" transform="matrix(1,0,0,1,749,451.8144576776556) translate(65.27654320987655 64.97777777777777)"/><use xlink:href="#u" transform="matrix(1,0,0,1,749,451.8144576776556) translate(91.81975308641975 64.97777777777777)"/><use xlink:href="#v" transform="matrix(1,0,0,1,749,451.8144576776556) translate(157.12839506172838 64.97777777777777)"/><use xlink:href="#j" transform="matrix(1,0,0,1,749,451.8144576776556) translate(32.83827160493827 91.64444444444445)"/><use xlink:href="#w" transform="matrix(1,0,0,1,749,451.8144576776556) translate(59.38148148148148 91.64444444444445)"/><use xlink:href="#v" transform="matrix(1,0,0,1,749,451.8144576776556) translate(189.56666666666666 91.64444444444445)"/><use xlink:href="#j" transform="matrix(1,0,0,1,749,451.8144576776556) translate(17.591358024691377 118.3111111111111)"/><use xlink:href="#x" transform="matrix(1,0,0,1,749,451.8144576776556) translate(44.13456790123458 118.3111111111111)"/><use xlink:href="#y" transform="matrix(1,0,0,1,749,451.8144576776556) translate(99.62839506172841 118.3111111111111)"/><use xlink:href="#z" transform="matrix(1,0,0,1,749,451.8144576776556) translate(144.01111111111112 118.3111111111111)"/><use xlink:href="#A" transform="matrix(1,0,0,1,749,451.8144576776556) translate(204.81358024691357 118.3111111111111)"/><use xlink:href="#j" transform="matrix(1,0,0,1,749,451.8144576776556) translate(19.474074074074085 144.9777777777778)"/><use xlink:href="#B" transform="matrix(1,0,0,1,749,451.8144576776556) translate(46.01728395061729 144.9777777777778)"/><use xlink:href="#C" transform="matrix(1,0,0,1,749,451.8144576776556) translate(154.5358024691358 144.9777777777778)"/><path d="M789 212.47c-13.25 0-24 10.75-24 24v72c0 13.26 10.75 24 24 24h192c13.25 0 24-10.74 24-24v-72c0-13.25-10.75-24-24-24z" stroke="#333" fill="#ccc" fill-opacity=".68"/><path d="M765 256.47h240" stroke="#333" fill="none"/><use xlink:href="#D" transform="matrix(1,0,0,1,813,212.470342317499) translate(1.7222222222222285 26.444444444444443)"/><use xlink:href="#E" transform="matrix(1,0,0,1,813,212.470342317499) translate(95.42592592592594 26.444444444444443)"/><use xlink:href="#F" transform="matrix(1,0,0,1,789,272.470342317499) translate(13.993827160493833 20.977777777777778)"/><use xlink:href="#G" transform="matrix(1,0,0,1,789,272.470342317499) translate(20.16666666666667 20.977777777777778)"/><use xlink:href="#H" transform="matrix(1,0,0,1,789,272.470342317499) translate(105.16666666666667 20.977777777777778)"/><use xlink:href="#I" transform="matrix(1,0,0,1,789,272.470342317499) translate(47.26543209876543 47.644444444444446)"/><path d="M412.43 782.66c-17.8 0-32.25 14.44-32.25 32.25v96.74c0 17.8 14.44 32.25 32.25 32.25h226.6c17.82 0 32.25-14.45 32.25-32.26V814.9c0-17.8-14.43-32.24-32.24-32.24z" stroke="#333" fill="#f5b5c8" fill-opacity=".8"/><path d="M380.18 826.66h291.1" stroke="#333" fill="none"/><use xlink:href="#J" transform="matrix(1,0,0,1,438.40299335555665,782.6638143778654) translate(30.79660493827162 26.488888888888887)"/><use xlink:href="#K" transform="matrix(1,0,0,1,438.40299335555665,782.6638143778654) translate(73.19166666666666 26.488888888888887)"/><use xlink:href="#L" transform="matrix(1,0,0,1,409.2930860767685,842.6638143778654) translate(39.6037037037037 20.977777777777778)"/><use xlink:href="#M" transform="matrix(1,0,0,1,409.2930860767685,842.6638143778654) translate(68.36913580246913 20.977777777777778)"/><use xlink:href="#L" transform="matrix(1,0,0,1,409.2930860767685,842.6638143778654) translate(17.381481481481487 47.644444444444446)"/><use xlink:href="#N" transform="matrix(1,0,0,1,409.2930860767685,842.6638143778654) translate(46.14691358024692 47.644444444444446)"/><use xlink:href="#O" transform="matrix(1,0,0,1,409.2930860767685,842.6638143778654) translate(121.45555555555555 47.644444444444446)"/><use xlink:href="#P" transform="matrix(1,0,0,1,409.2930860767685,842.6638143778654) translate(180.59135802469137 47.644444444444446)"/><use xlink:href="#L" transform="matrix(1,0,0,1,409.2930860767685,842.6638143778654) translate(53.81481481481481 74.3111111111111)"/><use xlink:href="#Q" transform="matrix(1,0,0,1,409.2930860767685,842.6638143778654) translate(82.58024691358024 74.3111111111111)"/><use xlink:href="#R" transform="matrix(1,0,0,1,409.2930860767685,842.6638143778654) translate(124.55555555555554 74.3111111111111)"/><use xlink:href="#S" transform="matrix(1,0,0,1,409.2930860767685,842.6638143778654) translate(116.5 100.97777777777779)"/><path d="M1143.64 393.4c-26.86 0-48.64 21.76-48.64 48.63v145.92c0 26.86 21.78 48.64 48.64 48.64h242.72c26.86 0 48.64-21.8 48.64-48.65V442.03c0-26.87-21.78-48.64-48.64-48.64z" stroke="#333" fill="#99d2f2" fill-opacity=".52"/><path d="M1095 437.4h340" stroke="#333" fill="none"/><use xlink:href="#T" transform="matrix(1,0,0,1,1163,393.3870385761593) translate(25.580246913580254 26.444444444444443)"/><use xlink:href="#U" transform="matrix(1,0,0,1,1163,393.3870385761593) translate(127.8641975308642 26.444444444444443)"/><use xlink:href="#V" transform="matrix(1,0,0,1,1129,453.3870385761593) translate(23.146913580246917 21.777777777777775)"/><use xlink:href="#W" transform="matrix(1,0,0,1,1129,453.3870385761593) translate(144.01111111111112 21.777777777777775)"/><use xlink:href="#X" transform="matrix(1,0,0,1,1129,453.3870385761593) translate(164.99876543209876 21.777777777777775)"/><use xlink:href="#Y" transform="matrix(1,0,0,1,1129,453.3870385761593) translate(65.27654320987655 51.644444444444446)"/><use xlink:href="#Z" transform="matrix(1,0,0,1,1129,453.3870385761593) translate(91.81975308641975 51.644444444444446)"/><use xlink:href="#aa" transform="matrix(1,0,0,1,1129,453.3870385761593) translate(157.12839506172838 51.644444444444446)"/><use xlink:href="#Y" transform="matrix(1,0,0,1,1129,453.3870385761593) translate(32.83827160493827 78.3111111111111)"/><use xlink:href="#ab" transform="matrix(1,0,0,1,1129,453.3870385761593) translate(59.38148148148148 78.3111111111111)"/><use xlink:href="#aa" transform="matrix(1,0,0,1,1129,453.3870385761593) translate(189.56666666666666 78.3111111111111)"/><use xlink:href="#Y" transform="matrix(1,0,0,1,1129,453.3870385761593) translate(17.591358024691377 104.97777777777779)"/><use xlink:href="#ac" transform="matrix(1,0,0,1,1129,453.3870385761593) translate(44.13456790123458 104.97777777777779)"/><use xlink:href="#ad" transform="matrix(1,0,0,1,1129,453.3870385761593) translate(99.62839506172841 104.97777777777779)"/><use xlink:href="#ae" transform="matrix(1,0,0,1,1129,453.3870385761593) translate(144.01111111111112 104.97777777777779)"/><use xlink:href="#af" transform="matrix(1,0,0,1,1129,453.3870385761593) translate(204.81358024691357 104.97777777777779)"/><use xlink:href="#Y" transform="matrix(1,0,0,1,1129,453.3870385761593) translate(38.05432098765435 131.64444444444445)"/><use xlink:href="#ag" transform="matrix(1,0,0,1,1129,453.3870385761593) translate(64.59753086419755 131.64444444444445)"/><use xlink:href="#ah" transform="matrix(1,0,0,1,1129,453.3870385761593) translate(106.57283950617285 131.64444444444445)"/><use xlink:href="#af" transform="matrix(1,0,0,1,1129,453.3870385761593) translate(184.3506172839506 131.64444444444445)"/><use xlink:href="#Y" transform="matrix(1,0,0,1,1129,453.3870385761593) translate(19.474074074074085 158.31111111111113)"/><use xlink:href="#ai" transform="matrix(1,0,0,1,1129,453.3870385761593) translate(46.01728395061729 158.31111111111113)"/><use xlink:href="#aj" transform="matrix(1,0,0,1,1129,453.3870385761593) translate(154.5358024691358 158.31111111111113)"/><g filter="url(#ak)" stroke="#fff" stroke-opacity="0"><path d="M840.28 1083h124.44v124.44H840.28z" fill="#ff8f80"/><path d="M962.5 1085.23v119.97h-120v-119.97h120m4.5-4.5H838v129h129v-129z" fill="#fff"/><path d="M926.23 1153.57c6.97 0 11.13-4.93 11.13-13.13 0-5.08-3.48-10.47-13.1-11.08.33-3.72-1.03-7.06-3.9-9.56-1.64-1.52-3.75-2.2-6.07-1.75-2.2-6.68-7.25-10.02-14.97-10.02-.13 0-16.04.23-16.8 19.36-13.3.82-13.44 12.96-13.44 13.04v.68c.2 7.06 6 12.6 13.1 12.45h15.02l-11 9.4c-1.22-.83-2.6-1.28-4.1-1.28-4.02 0-7.3 3.25-7.3 7.28 0 4.02 3.28 7.28 7.3 7.28 3.97 0 7.25-3.26 7.25-7.28 0-1.37-.34-2.6-1.1-3.72l13.45-11.54v15.86c-2.86.6-4.98 2.66-5.6 5.54-.8 3.95 1.7 7.82 5.6 8.65 3.96.84 7.8-1.67 8.67-5.6.8-3.96-1.7-7.75-5.6-8.6v-15.85l13.38 11.54c-.75 1.13-1.1 2.35-1.1 3.72 0 4.02 3.28 7.28 7.3 7.28 4.04 0 7.25-3.26 7.25-7.28 0-4.03-3.28-7.3-7.3-7.3-1.5 0-2.8.46-4.1 1.3l-10.93-9.4zm-54.07-13.13c0-.38.28-10.02 11.95-10.02.83 0 1.5-.68 1.5-1.52 0-17.53 13.26-17.83 13.8-17.83 6.9 0 10.86 3.04 12.5 9.34 0 .08.06.16.13.3.34.77 1.3 1 2.05.62 1.5-.7 3.14-.38 4.37.83 2.4 2.05 3.28 5.1 2.53 8.2-.07.15-.07.3-.07.53.08.83.76 1.52 1.58 1.44 7.5 0 11.94 3.04 11.94 8.12 0 3.8-1.1 10.1-8.05 10.1h-44.03c-5.4.22-9.97-4.03-10.18-9.42v-.68zm10.04 32.86c-2.4 0-4.23-1.9-4.3-4.25 0-2.35 1.9-4.25 4.23-4.25 2.4 0 4.23 1.9 4.3 4.25 0 2.35-1.9 4.25-4.23 4.25zm25.33 3.42c-.07 2.35-1.98 4.17-4.37 4.17-2.32-.1-4.17-1.98-4.17-4.34.06-2.27 1.97-4.17 4.23-4.17 2.4 0 4.3 1.9 4.3 4.24zm16.8-11.92c2.38 0 4.22 1.9 4.3 4.25 0 2.35-1.92 4.25-4.24 4.25-2.4 0-4.24-1.9-4.3-4.25 0-2.35 1.83-4.25 4.15-4.32h.07z" fill="#fff"/></g><path d="M465.73 588.1h120v120h-120v-120z" stroke="#fff" stroke-opacity="0" stroke-width="2" fill="#a65e12" fill-opacity=".71"/><path d="M536.92 639.95c1.36.72 2.4 1.68 3.2 3.04v-23.37c0-7.44-14.1-11.52-27.22-11.52-13.2 0-27.22 4.1-27.22 11.53v56.96c0 7.43 14 11.5 27.22 11.5 13.13 0 27.22-4.07 27.22-11.5v-7.7h-3.2v7.7c0 3.9-9.93 8.3-24.02 8.3-14.17 0-24-4.4-24-8.3v-11.93c4.8 3.92 14.64 6 24 6 2.88 0 5.28-.16 8.17-.56-.72-.95-1.2-1.83-1.44-3.03-2.4.24-4.4.4-6.73.4-14.1 0-24-4.4-24-8.4h.07v-13.92c4.8 3.92 14.65 5.92 23.93 5.92 5.12.08 9.37-.4 14.25-1.6-.4-.96-.56-1.84-.56-2.88v-.25c-4.73 1.2-8.82 1.68-13.7 1.6-14.1 0-23.93-4.4-23.93-8.32V625.4c4.88 3.83 14.65 5.9 23.93 5.9 9.37 0 19.13-2.07 24.02-5.9v14.55zm-24.02-11.92c-14.17 0-24-4.4-24-8.4 0-3.92 9.83-8.32 24-8.32 14.1 0 24.02 4.4 24.02 8.33 0 4-9.85 8.4-24.02 8.4zm48.83 40.88c-2.24 0-4 1.77-4 4 0 .33 0 .57.08.9l-5.28 3.27c-.88-.88-1.84-1.36-3.04-1.6l-.32-7.12c1.68-.4 2.96-1.2 4.17-2.48 3.04-3.44 2.72-8.64-.65-11.68l4.97-8.5c.56.17 1.04.25 1.6.25 3.12 0 5.6-2.48 5.6-5.6 0-3.04-2.48-5.6-5.6-5.6-3.04 0-5.6 2.56-5.6 5.6 0 1.36.48 2.56 1.36 3.6l-5.12 8.56c-.88-.3-1.76-.4-2.72-.4-1.68 0-3.04.4-4.48 1.37l-5.2-5.36c.16-.55.24-1.03.24-1.6 0-2.23-1.77-4-4-4-2.17 0-4 1.77-4 4 0 2.25 1.83 4 4 4 .55 0 .95-.07 1.43-.23l5.2 5.36c-.95 1.44-1.43 2.96-1.43 4.72l-6.25 1.36c-1.04-1.5-2.64-2.4-4.56-2.4-3.03.1-5.5 2.57-5.5 5.7 0 3.03 2.47 5.5 5.6 5.5 3.03 0 5.5-2.47 5.5-5.6v-.15l5.86-1.2c1.2 2.72 3.44 4.48 6.4 4.96l.32 7.05c-2.72.88-4.56 3.28-4.56 6.16 0 3.53 2.88 6.4 6.4 6.4 3.52 0 6.4-2.87 6.4-6.4 0-.7-.07-1.27-.3-1.9l5.5-3.45c.65.4 1.3.56 2 .56 2.25 0 4-1.75 4-4 0-2.23-1.75-4-4-4zm-2.4-30.87c1.36 0 2.4 1.04 2.4 2.4 0 1.28-1.04 2.4-2.4 2.4-1.36 0-2.4-1.12-2.4-2.4 0-1.36 1.04-2.4 2.4-2.4zm-25.62 9.28c-.4 0-.8-.3-.8-.8 0-.47.4-.8.8-.8.5 0 .8.33.8.8 0 .5-.3.8-.8.8zm-5.6 20c-1.27 0-2.4-1.03-2.4-2.4 0-1.35 1.13-2.4 2.4-2.4 1.37 0 2.4 1.05 2.4 2.4 0 1.37-1.03 2.4-2.4 2.4zm14.02-6.95c0-2.8 2.24-5.12 5.04-5.12s5.12 2.32 5.12 5.12c0 2.8-2.32 5.04-5.12 5.04-2.8 0-5.04-2.25-5.04-5.05zm6 24.56c-1.76 0-3.2-1.43-3.2-3.2 0-1.75 1.44-3.2 3.2-3.2 1.76 0 3.2 1.45 3.2 3.2 0 1.77-1.44 3.2-3.2 3.2zm13.6-11.2c-.4 0-.8-.3-.8-.8 0-.47.4-.8.8-.8.5 0 .8.33.8.8 0 .5-.3.8-.8.8z" stroke="#fff" stroke-opacity="0" stroke-width="2" fill="#fff"/><path d="M525 540.73v23.07c0 .2.16.37.37.37.2 0 .36.16.36.36v7.2" stroke="#333" fill="none"/><path d="M525.5 540.74h-1v-.5h1z" fill="#333"/><path d="M525.73 586.5l-4.63-14.28h9.27z" stroke="#333" fill="#333"/><path d="M525.73 708.6v57.18" stroke="#333" fill="none"/><path d="M526.23 708.62h-1v-.5h1z" fill="#333"/><path d="M525.73 780.55l-4.63-14.27h9.27z" stroke="#333" fill="#333"/><path d="M300.73 626.1c0-4.4 3.58-8 8-8h224c4.42 0 8 3.6 8 8v44c0 4.42-3.58 8-8 8h-224c-4.42 0-8-3.58-8-8z" stroke="#000" stroke-opacity="0" fill="#fff" fill-opacity="0"/><g><use xlink:href="#al" transform="matrix(1,0,0,1,305.7327151919212,623.1054664417848) translate(80.74104938271606 30.455555555555552)"/></g><path d="M245 190.04v-44.6c0-4.4 3.58-8 8-8h1299c4.42 0 8 3.6 8 8v44.6z" stroke="#333" fill="#ff8f80" fill-opacity=".43"/><path d="M1560 190.04V1292c0 4.42-3.58 8-8 8H253c-4.42 0-8-3.58-8-8V190.04z" stroke="#333" fill="none"/><g><use xlink:href="#am" transform="matrix(1,0,0,1,245,137.44383893544227) translate(481.2064814814816 32.766666666666666)"/><use xlink:href="#an" transform="matrix(1,0,0,1,245,137.44383893544227) translate(686.1787037037037 32.766666666666666)"/><use xlink:href="#ao" transform="matrix(1,0,0,1,245,137.44383893544227) translate(766.0787037037037 32.766666666666666)"/></g><path d="M885 333.47v16.1c0 6.64 5.37 12 12 12h356c6.63 0 12 5.38 12 12v2.93" stroke="#333" fill="none"/><path d="M885.5 333.48h-1v-.5h1z" fill="#333"/><path d="M1265 391.27l-4.64-14.27h9.28z" stroke="#333" fill="#333"/><path d="M1056 462.97h22.12" stroke="#333" fill="none"/><path d="M1056 463.47h-.5v-1h.5z" fill="#333"/><path d="M1092.88 462.97l-14.26 4.64v-9.26z" stroke="#333" fill="#333"/><path d="M1094 573.25h-22.12" stroke="#333" fill="none"/><path d="M1094.5 573.75h-.5v-1h.5z" fill="#333"/><path d="M1057.12 573.25l14.26-4.64v9.28z" stroke="#333" fill="#333"/><path d="M1265 637.6v213.68c0 6.62-5.37 12-12 12H984.65" stroke="#333" fill="none"/><path d="M1265.5 637.6h-1v-.5h1z" fill="#333"/><path d="M969.9 863.28l14.25-4.64v9.27z" stroke="#333" fill="#333"/><path d="M903.77 636.02V782.4" stroke="#333" fill="none"/><path d="M904.27 636.03h-1v-.5h1z" fill="#333"/><path d="M903.77 797.16l-4.64-14.27h9.27z" stroke="#333" fill="#333"/><path d="M672.28 863.28h150.6" stroke="#333" fill="none"/><path d="M672.3 863.78h-.52v-1h.52z" fill="#333"/><path d="M837.65 863.28l-14.27 4.63v-9.26z" stroke="#333" fill="#333"/><path d="M903.77 927.78c-35.6 0-64.5-28.9-64.5-64.5s28.9-64.5 64.5-64.5 64.5 28.9 64.5 64.5-28.9 64.5-64.5 64.5zm0-123.46c-32.64 0-58.96 26.32-58.96 58.96 0 32.63 26.33 58.95 58.97 58.95 32.63 0 58.95-26.32 58.95-58.95 0-32.64-26.32-58.96-58.95-58.96z" stroke="#fff" stroke-opacity="0" fill="#693cc5"/><path d="M914.46 828.86l-10.7-12.46-10.68 12.46-4.16-3.58 12.77-14.9c.97-1.15 2.7-1.3 3.85-.3.12.1.2.2.3.3l12.77 14.9z" stroke="#fff" stroke-opacity="0" fill="#693cc5"/><path d="M901.02 814.2h5.5v98.12H901V814.2z" stroke="#fff" stroke-opacity="0" fill="#693cc5"/><path d="M903.77 917.13c-.77 0-1.42-.27-1.94-.8l-12.77-12.78 3.88-3.88 10.83 10.98 10.82-10.98 3.88 3.88-12.77 12.77c-.52.54-1.17.8-1.93.8zM884.55 878l-4.03-3.75 10.85-10.97-10.85-10.83 4.03-3.9 12.77 12.78c1.07 1.06 1.07 2.8.02 3.9h-.02zM923.12 878l-12.77-12.78c-1.07-1.06-1.1-2.8 0-3.9l12.77-12.76 3.9 3.9-10.86 10.82L927 874.25z" stroke="#fff" stroke-opacity="0" fill="#693cc5"/><path d="M912.28 860.53h46.85v5.5h-46.85v-5.5zM848.4 860.53h46.86v5.5H848.4v-5.5z" stroke="#fff" stroke-opacity="0" fill="#693cc5"/><path d="M903.77 928.28v136.05" stroke="#333" fill="none"/><path d="M903.77 927.78h.5v.5h-1v-.52z" fill="#333"/><path d="M903.77 1079.1l-4.64-14.27h9.27z" stroke="#333" fill="#333"/><path d="M1220 1159.88V1128c0-4.42 3.58-8 8-8h304c4.42 0 8 3.58 8 8v31.88z" stroke="#333" fill="#ff8f80" fill-opacity=".43"/><path d="M1540 1159.88v111.63c0 4.43-3.58 8-8 8h-304c-4.42 0-8-3.57-8-8V1159.9z" stroke="#333" fill="none"/><g><use xlink:href="#ap" transform="matrix(1,0,0,1,1220,1120) translate(87.125 23.6)"/><use xlink:href="#aq" transform="matrix(1,0,0,1,1220,1120) translate(142.025 23.6)"/></g><path d="M1260 1179c0-4.42 3.58-8 8-8h224c4.42 0 8 3.58 8 8v82c0 4.42-3.58 8-8 8h-224c-4.42 0-8-3.58-8-8z" stroke="#000" stroke-opacity="0" fill="#fff" fill-opacity="0"/><g><use xlink:href="#ar" transform="matrix(1,0,0,1,1265,1176) translate(65.5 19.555555555555557)"/><use xlink:href="#as" transform="matrix(1,0,0,1,1265,1176) translate(137.3395061728395 19.555555555555557)"/><use xlink:href="#at" transform="matrix(1,0,0,1,1265,1176) translate(49.88271604938272 48.88888888888889)"/><use xlink:href="#au" transform="matrix(1,0,0,1,1265,1176) translate(104.13580246913581 48.88888888888889)"/><use xlink:href="#av" transform="matrix(1,0,0,1,1265,1176) translate(43.77160493827161 78.22222222222223)"/><use xlink:href="#aw" transform="matrix(1,0,0,1,1265,1176) translate(95.37654320987654 78.22222222222223)"/></g><defs><path fill="#a9afb8" d="M24-248c93 1 206-16 204 79-1 75-69 88-152 82V0H24v-248zm52 121c47 0 100 7 100-41 0-47-54-39-100-39v80" id="ax"/><path fill="#a9afb8" d="M135-150c-39-12-60 13-60 57V0H25l-1-190h47c2 13-1 29 3 40 6-28 27-53 61-41v41" id="ay"/><path fill="#a9afb8" d="M110-194c64 0 96 36 96 99 0 64-35 99-97 99-61 0-95-36-95-99 0-62 34-99 96-99zm-1 164c35 0 45-28 45-65 0-40-10-65-43-65-34 0-45 26-45 65 0 36 10 65 43 65" id="az"/><path fill="#a9afb8" d="M25-224v-37h50v37H25zM75 22c2 45-34 59-81 51V38c22 5 31-5 31-27v-201h50V22" id="aA"/><path fill="#a9afb8" d="M185-48c-13 30-37 53-82 52C43 2 14-33 14-96s30-98 90-98c62 0 83 45 84 108H66c0 31 8 55 39 56 18 0 30-7 34-22zm-45-69c5-46-57-63-70-21-2 6-4 13-4 21h74" id="aB"/><path fill="#a9afb8" d="M190-63c-7 42-38 67-86 67-59 0-84-38-90-98-12-110 154-137 174-36l-49 2c-2-19-15-32-35-32-30 0-35 28-38 64-6 74 65 87 74 30" id="aC"/><path fill="#a9afb8" d="M115-3C79 11 28 4 28-45v-112H4v-33h27l15-45h31v45h36v33H77v99c-1 23 16 31 38 25v30" id="aD"/><path fill="#a9afb8" d="M14-72v-43h91v43H14" id="aE"/><path fill="#a9afb8" d="M182-182c0 78-84 86-111 141h115V0H12c-6-101 99-100 120-180 1-22-12-31-33-32-23 0-32 14-35 34l-49-3c5-45 32-70 84-70 51 0 83 22 83 69" id="aF"/><g id="a"><use transform="matrix(0.06172839506172839,0,0,0.06172839506172839,0,0)" xlink:href="#ax"/><use transform="matrix(0.06172839506172839,0,0,0.06172839506172839,14.814814814814813,0)" xlink:href="#ay"/><use transform="matrix(0.06172839506172839,0,0,0.06172839506172839,23.456790123456788,0)" xlink:href="#az"/><use transform="matrix(0.06172839506172839,0,0,0.06172839506172839,36.9753086419753,0)" xlink:href="#aA"/><use transform="matrix(0.06172839506172839,0,0,0.06172839506172839,43.148148148148145,0)" xlink:href="#aB"/><use transform="matrix(0.06172839506172839,0,0,0.06172839506172839,55.49382716049382,0)" xlink:href="#aC"/><use transform="matrix(0.06172839506172839,0,0,0.06172839506172839,67.8395061728395,0)" xlink:href="#aD"/><use transform="matrix(0.06172839506172839,0,0,0.06172839506172839,75.18518518518519,0)" xlink:href="#aE"/><use transform="matrix(0.06172839506172839,0,0,0.06172839506172839,82.53086419753087,0)" xlink:href="#aF"/></g><path fill="#a9afb8" d="M197 0v-115H63V0H30v-248h33v105h134v-105h34V0h-34" id="aG"/><path fill="#a9afb8" d="M100-194c63 0 86 42 84 106H49c0 40 14 67 53 68 26 1 43-12 49-29l28 8c-11 28-37 45-77 45C44 4 14-33 15-96c1-61 26-98 85-98zm52 81c6-60-76-77-97-28-3 7-6 17-6 28h103" id="aH"/><path fill="#a9afb8" d="M117-194c89-4 53 116 60 194h-32v-121c0-31-8-49-39-48C34-167 62-67 57 0H25l-1-190h30c1 10-1 24 2 32 11-22 29-35 61-36" id="aI"/><path fill="#a9afb8" d="M114-163C36-179 61-72 57 0H25l-1-190h30c1 12-1 29 2 39 6-27 23-49 58-41v29" id="aJ"/><path fill="#a9afb8" d="M179-190L93 31C79 59 56 82 12 73V49c39 6 53-20 64-50L1-190h34L92-34l54-156h33" id="aK"/><g id="b"><use transform="matrix(0.06172839506172839,0,0,0.06172839506172839,0,0)" xlink:href="#aG"/><use transform="matrix(0.06172839506172839,0,0,0.06172839506172839,15.987654320987653,0)" xlink:href="#aH"/><use transform="matrix(0.06172839506172839,0,0,0.06172839506172839,28.333333333333332,0)" xlink:href="#aI"/><use transform="matrix(0.06172839506172839,0,0,0.06172839506172839,40.67901234567901,0)" xlink:href="#aJ"/><use transform="matrix(0.06172839506172839,0,0,0.06172839506172839,48.02469135802469,0)" xlink:href="#aK"/></g><path fill="#a9afb8" d="M30 0v-248h33v221h125V0H30" id="aL"/><g id="c"><use transform="matrix(0.06172839506172839,0,0,0.06172839506172839,0,0)" xlink:href="#aL"/><use transform="matrix(0.06172839506172839,0,0,0.06172839506172839,12.345679012345679,0)" xlink:href="#aH"/></g><path fill="#a9afb8" d="M32 76v-337h29V76H32" id="aM"/><use transform="matrix(0.06172839506172839,0,0,0.06172839506172839,0,0)" xlink:href="#aM" id="d"/><path fill="#a9afb8" d="M153-248C145-148 188 4 80 4 36 3 13-21 6-62l32-5c4 25 16 42 43 43 27 0 39-20 39-49v-147H72v-28h81" id="aN"/><path fill="#a9afb8" d="M84 4C-5 8 30-112 23-190h32v120c0 31 7 50 39 49 72-2 45-101 50-169h31l1 190h-30c-1-10 1-25-2-33-11 22-28 36-60 37" id="aO"/><g id="e"><use transform="matrix(0.06172839506172839,0,0,0.06172839506172839,0,0)" xlink:href="#aN"/><use transform="matrix(0.06172839506172839,0,0,0.06172839506172839,11.11111111111111,0)" xlink:href="#aO"/><use transform="matrix(0.06172839506172839,0,0,0.06172839506172839,23.45679012345679,0)" xlink:href="#aI"/><use transform="matrix(0.06172839506172839,0,0,0.06172839506172839,35.80246913580247,0)" xlink:href="#aH"/></g><path fill="#a9afb8" d="M27 0v-27h64v-190l-56 39v-29l58-41h29v221h61V0H27" id="aP"/><path fill="#a9afb8" d="M126-127c33 6 58 20 58 59 0 88-139 92-164 29-3-8-5-16-6-25l32-3c6 27 21 44 54 44 32 0 52-15 52-46 0-38-36-46-79-43v-28c39 1 72-4 72-42 0-27-17-43-46-43-28 0-47 15-49 41l-32-3c6-42 35-63 81-64 48-1 79 21 79 65 0 36-21 52-52 59" id="aQ"/><path fill="#a9afb8" d="M68-38c1 34 0 65-14 84H32c9-13 17-26 17-46H33v-38h35" id="aR"/><g id="f"><use transform="matrix(0.06172839506172839,0,0,0.06172839506172839,0,0)" xlink:href="#aP"/><use transform="matrix(0.06172839506172839,0,0,0.06172839506172839,12.345679012345679,0)" xlink:href="#aQ"/><use transform="matrix(0.06172839506172839,0,0,0.06172839506172839,24.691358024691358,0)" xlink:href="#aR"/></g><path fill="#a9afb8" d="M101-251c82-7 93 87 43 132L82-64C71-53 59-42 53-27h129V0H18c2-99 128-94 128-182 0-28-16-43-45-43s-46 15-49 41l-32-3c6-41 34-60 81-64" id="aS"/><path fill="#a9afb8" d="M101-251c68 0 85 55 85 127S166 4 100 4C33 4 14-52 14-124c0-73 17-127 87-127zm-1 229c47 0 54-49 54-102s-4-102-53-102c-51 0-55 48-55 102 0 53 5 102 54 102" id="aT"/><g id="g"><use transform="matrix(0.06172839506172839,0,0,0.06172839506172839,0,0)" xlink:href="#aS"/><use transform="matrix(0.06172839506172839,0,0,0.06172839506172839,12.345679012345679,0)" xlink:href="#aT"/><use transform="matrix(0.06172839506172839,0,0,0.06172839506172839,24.691358024691358,0)" xlink:href="#aS"/><use transform="matrix(0.06172839506172839,0,0,0.06172839506172839,37.03703703703704,0)" xlink:href="#aT"/></g><path fill="#fff" d="M30-248c118-7 216 8 213 122C240-48 200 0 122 0H30v-248zM63-27c89 8 146-16 146-99s-60-101-146-95v194" id="aU"/><path fill="#fff" d="M141-36C126-15 110 5 73 4 37 3 15-17 15-53c-1-64 63-63 125-63 3-35-9-54-41-54-24 1-41 7-42 31l-33-3c5-37 33-52 76-52 45 0 72 20 72 64v82c-1 20 7 32 28 27v20c-31 9-61-2-59-35zM48-53c0 20 12 33 32 33 41-3 63-29 60-74-43 2-92-5-92 41" id="aV"/><path fill="#fff" d="M59-47c-2 24 18 29 38 22v24C64 9 27 4 27-40v-127H5v-23h24l9-43h21v43h35v23H59v120" id="aW"/><g id="h"><use transform="matrix(0.06172839506172839,0,0,0.06172839506172839,0,0)" xlink:href="#aU"/><use transform="matrix(0.06172839506172839,0,0,0.06172839506172839,15.987654320987653,0)" xlink:href="#aV"/><use transform="matrix(0.06172839506172839,0,0,0.06172839506172839,28.333333333333332,0)" xlink:href="#aW"/><use transform="matrix(0.06172839506172839,0,0,0.06172839506172839,34.50617283950617,0)" xlink:href="#aV"/></g><path fill="#fff" d="M30-248c87 1 191-15 191 75 0 78-77 80-158 76V0H30v-248zm33 125c57 0 124 11 124-50 0-59-68-47-124-48v98" id="aX"/><path fill="#fff" d="M114-163C36-179 61-72 57 0H25l-1-190h30c1 12-1 29 2 39 6-27 23-49 58-41v29" id="aY"/><path fill="#fff" d="M100-194c62-1 85 37 85 99 1 63-27 99-86 99S16-35 15-95c0-66 28-99 85-99zM99-20c44 1 53-31 53-75 0-43-8-75-51-75s-53 32-53 75 10 74 51 75" id="aZ"/><path fill="#fff" d="M96-169c-40 0-48 33-48 73s9 75 48 75c24 0 41-14 43-38l32 2c-6 37-31 61-74 61-59 0-76-41-82-99-10-93 101-131 147-64 4 7 5 14 7 22l-32 3c-4-21-16-35-41-35" id="ba"/><path fill="#fff" d="M100-194c63 0 86 42 84 106H49c0 40 14 67 53 68 26 1 43-12 49-29l28 8c-11 28-37 45-77 45C44 4 14-33 15-96c1-61 26-98 85-98zm52 81c6-60-76-77-97-28-3 7-6 17-6 28h103" id="bb"/><path fill="#fff" d="M135-143c-3-34-86-38-87 0 15 53 115 12 119 90S17 21 10-45l28-5c4 36 97 45 98 0-10-56-113-15-118-90-4-57 82-63 122-42 12 7 21 19 24 35" id="bc"/><path fill="#fff" d="M24-231v-30h32v30H24zM24 0v-190h32V0H24" id="bd"/><path fill="#fff" d="M117-194c89-4 53 116 60 194h-32v-121c0-31-8-49-39-48C34-167 62-67 57 0H25l-1-190h30c1 10-1 24 2 32 11-22 29-35 61-36" id="be"/><path fill="#fff" d="M177-190C167-65 218 103 67 71c-23-6-38-20-44-43l32-5c15 47 100 32 89-28v-30C133-14 115 1 83 1 29 1 15-40 15-95c0-56 16-97 71-98 29-1 48 16 59 35 1-10 0-23 2-32h30zM94-22c36 0 50-32 50-73 0-42-14-75-50-75-39 0-46 34-46 75s6 73 46 73" id="bf"/><g id="i"><use transform="matrix(0.06172839506172839,0,0,0.06172839506172839,0,0)" xlink:href="#aX"/><use transform="matrix(0.06172839506172839,0,0,0.06172839506172839,14.814814814814813,0)" xlink:href="#aY"/><use transform="matrix(0.06172839506172839,0,0,0.06172839506172839,22.160493827160494,0)" xlink:href="#aZ"/><use transform="matrix(0.06172839506172839,0,0,0.06172839506172839,34.50617283950617,0)" xlink:href="#ba"/><use transform="matrix(0.06172839506172839,0,0,0.06172839506172839,45.61728395061728,0)" xlink:href="#bb"/><use transform="matrix(0.06172839506172839,0,0,0.06172839506172839,57.962962962962955,0)" xlink:href="#bc"/><use transform="matrix(0.06172839506172839,0,0,0.06172839506172839,69.07407407407406,0)" xlink:href="#bc"/><use transform="matrix(0.06172839506172839,0,0,0.06172839506172839,80.18518518518518,0)" xlink:href="#bd"/><use transform="matrix(0.06172839506172839,0,0,0.06172839506172839,85.06172839506172,0)" xlink:href="#be"/><use transform="matrix(0.06172839506172839,0,0,0.06172839506172839,97.4074074074074,0)" xlink:href="#bf"/></g><path fill="#fff" d="M54-68v-132l118 66" id="bg"/><use transform="matrix(0.06172839506172839,0,0,0.06172839506172839,0,0)" xlink:href="#bg" id="j"/><path fill="#fff" d="M11 0l48-248h184l-5 28H87l-15 79h140l-5 27H67L50-27h158l-5 27H11" id="bh"/><path fill="#fff" d="M151-220L108 0H75l42-220H32l6-28h203l-5 28h-85" id="bi"/><path fill="#fff" d="M11 0l48-248h34L50-27h125l-5 27H11" id="bj"/><path fill="#fff" d="M17-49c1-102 45-165 103-212h30C92-210 49-145 49-46 49 4 63 43 85 75H54C30 43 18 2 17-49" id="bk"/><path fill="#fff" d="M29-66c0 49 71 55 82 11 13-52 22-111 33-165H93l5-28h85L149-74C151 11 7 37-1-60" id="bl"/><path fill="#fff" d="M67 3c-93-2-31-127-26-193h32L48-50c-3 39 53 32 70 12 30-34 30-101 43-152h32L157 0h-30c1-10 6-24 4-33-14 20-29 37-64 36" id="bm"/><path fill="#fff" d="M67-162c32-53 139-36 121 50C175-51 163 2 97 4 68 4 52-11 42-31 38 6 28 39 22 75H-9l50-265h29c-1 10 0 20-3 28zm89 36c0-26-10-43-35-43-54 0-67 50-69 103-1 29 14 45 42 46 53 0 62-58 62-106" id="bn"/><path fill="#fff" d="M198-190L69 30C53 58 25 83-20 72c4-11-1-27 19-22 33-1 43-29 59-52L20-190h32L79-34l84-156h35" id="bo"/><path fill="#fff" d="M51-54c-9 22 5 41 31 30L79-1C43 14 10-4 19-52l22-115H19l5-23h22l19-43h21l-9 43h35l-4 23H73" id="bp"/><path fill="#fff" d="M111-194c62-3 86 47 72 106H45c-7 38 6 69 45 68 27-1 43-14 53-32l24 11C152-15 129 4 87 4 38 3 12-23 12-71c0-70 32-119 99-123zm44 81c14-66-71-72-95-28-4 8-8 17-11 28h106" id="bq"/><path fill="#fff" d="M66-151c12-25 30-51 66-40l-6 26C45-176 58-65 38 0H6l36-190h30" id="br"/><g id="k"><use transform="matrix(0.06172839506172839,0,0,0.06172839506172839,0,0)" xlink:href="#bh"/><use transform="matrix(0.06172839506172839,0,0,0.06172839506172839,14.814814814814813,0)" xlink:href="#bi"/><use transform="matrix(0.06172839506172839,0,0,0.06172839506172839,28.33333333333333,0)" xlink:href="#bj"/><use transform="matrix(0.06172839506172839,0,0,0.06172839506172839,40.679012345679006,0)" xlink:href="#bk"/><use transform="matrix(0.06172839506172839,0,0,0.06172839506172839,48.02469135802468,0)" xlink:href="#bl"/><use transform="matrix(0.06172839506172839,0,0,0.06172839506172839,59.1358024691358,0)" xlink:href="#bm"/><use transform="matrix(0.06172839506172839,0,0,0.06172839506172839,71.48148148148148,0)" xlink:href="#bn"/><use transform="matrix(0.06172839506172839,0,0,0.06172839506172839,83.82716049382717,0)" xlink:href="#bo"/><use transform="matrix(0.06172839506172839,0,0,0.06172839506172839,94.93827160493828,0)" xlink:href="#bp"/><use transform="matrix(0.06172839506172839,0,0,0.06172839506172839,101.11111111111111,0)" xlink:href="#bq"/><use transform="matrix(0.06172839506172839,0,0,0.06172839506172839,113.4567901234568,0)" xlink:href="#br"/></g><path fill="#fff" d="M173 0L80-213 41 0H11l48-248h37l94 214 40-214h30L212 0h-39" id="bs"/><path fill="#fff" d="M219-77C219 17 104-2 11 0l48-248c73 2 169-15 169 57 0 38-24 54-60 60 29 5 51 21 51 54zm-26-111c0-44-62-31-105-33l-16 79c55 0 121 9 121-46zm-7 110c-1-49-69-36-119-38L50-27c61-1 137 12 136-51" id="bt"/><path fill="#fff" d="M98-137C97-35 54 29-4 75h-31C23 23 67-41 67-140c0-50-15-89-37-121h31c24 32 36 73 37 124" id="bu"/><g id="l"><use transform="matrix(0.06172839506172839,0,0,0.06172839506172839,0,0)" xlink:href="#bs"/><use transform="matrix(0.06172839506172839,0,0,0.06172839506172839,15.987654320987653,0)" xlink:href="#bt"/><use transform="matrix(0.06172839506172839,0,0,0.06172839506172839,30.80246913580247,0)" xlink:href="#bu"/></g><path fill="#fff" d="M124 0L87-78 21 0h-35l86-98-46-92h33l34 74 61-74h37l-83 92 50 98h-34" id="bv"/><path fill="#fff" d="M30-147c31-64 166-65 159 27C183-49 158 1 86 4 9 8 1-88 30-147zM88-20c53 0 68-48 68-100 0-31-11-51-44-50-52 1-68 46-68 97 0 32 13 53 44 53" id="bw"/><g id="m"><use transform="matrix(0.06172839506172839,0,0,0.06172839506172839,0,0)" xlink:href="#bh"/><use transform="matrix(0.06172839506172839,0,0,0.06172839506172839,14.814814814814813,0)" xlink:href="#bv"/><use transform="matrix(0.06172839506172839,0,0,0.06172839506172839,25.925925925925924,0)" xlink:href="#bn"/><use transform="matrix(0.06172839506172839,0,0,0.06172839506172839,38.2716049382716,0)" xlink:href="#bw"/><use transform="matrix(0.06172839506172839,0,0,0.06172839506172839,50.61728395061728,0)" xlink:href="#br"/><use transform="matrix(0.06172839506172839,0,0,0.06172839506172839,57.962962962962955,0)" xlink:href="#bp"/></g><g id="n"><use transform="matrix(0.06172839506172839,0,0,0.06172839506172839,0,0)" xlink:href="#bp"/><use transform="matrix(0.06172839506172839,0,0,0.06172839506172839,6.172839506172839,0)" xlink:href="#bw"/></g><path fill="#fff" d="M194-120c59 52 2 134-86 124-53-6-90-18-98-63l31-7c8 30 29 43 70 43 46 0 84-17 71-62-32-43-135-20-137-98-3-89 178-90 191-16l-30 9c-8-48-127-53-127 5 0 53 81 35 115 65" id="bx"/><path fill="#fff" d="M24-61C-1-165 59-251 163-251c67 1 105 36 105 101 0 88-46 140-124 152 2 33 24 47 60 39l-3 23c-50 15-89-11-89-61-46-3-79-26-88-64zm210-73c6-55-18-91-72-90-77 1-111 51-111 125 0 49 24 75 73 75 72 0 103-45 110-110" id="by"/><path fill="#fff" d="M50-231l6-30h32l-6 30H50zM6 0l37-190h31L37 0H6" id="bz"/><g id="o"><use transform="matrix(0.06172839506172839,0,0,0.06172839506172839,0,0)" xlink:href="#bx"/><use transform="matrix(0.06172839506172839,0,0,0.06172839506172839,14.814814814814813,0)" xlink:href="#by"/><use transform="matrix(0.06172839506172839,0,0,0.06172839506172839,32.09876543209876,0)" xlink:href="#bj"/><use transform="matrix(0.06172839506172839,0,0,0.06172839506172839,44.444444444444436,0)" xlink:href="#bz"/><use transform="matrix(0.06172839506172839,0,0,0.06172839506172839,49.32098765432098,0)" xlink:href="#bp"/><use transform="matrix(0.06172839506172839,0,0,0.06172839506172839,55.49382716049382,0)" xlink:href="#bq"/></g><path fill="#fff" d="M160-131c35 5 61 23 61 61C221 17 115-2 30 0v-248c76 3 177-17 177 60 0 33-19 50-47 57zm-97-11c50-1 110 9 110-42 0-47-63-36-110-37v79zm0 115c55-2 124 14 124-45 0-56-70-42-124-44v89" id="bA"/><path fill="#fff" d="M143 0L79-87 56-68V0H24v-261h32v163l83-92h37l-77 82L181 0h-38" id="bB"/><path fill="#fff" d="M16-82v-28h88v28H16" id="bC"/><path fill="#fff" d="M85-194c31 0 48 13 60 33l-1-100h32l1 261h-30c-2-10 0-23-3-31C134-8 116 4 85 4 32 4 16-35 15-94c0-66 23-100 70-100zm9 24c-40 0-46 34-46 75 0 40 6 74 45 74 42 0 51-32 51-76 0-42-9-74-50-73" id="bD"/><g id="p"><use transform="matrix(0.06172839506172839,0,0,0.06172839506172839,0,0)" xlink:href="#bA"/><use transform="matrix(0.06172839506172839,0,0,0.06172839506172839,14.814814814814813,0)" xlink:href="#aV"/><use transform="matrix(0.06172839506172839,0,0,0.06172839506172839,27.160493827160494,0)" xlink:href="#ba"/><use transform="matrix(0.06172839506172839,0,0,0.06172839506172839,38.27160493827161,0)" xlink:href="#bB"/><use transform="matrix(0.06172839506172839,0,0,0.06172839506172839,49.38271604938272,0)" xlink:href="#bC"/><use transform="matrix(0.06172839506172839,0,0,0.06172839506172839,56.7283950617284,0)" xlink:href="#bb"/><use transform="matrix(0.06172839506172839,0,0,0.06172839506172839,69.07407407407408,0)" xlink:href="#be"/><use transform="matrix(0.06172839506172839,0,0,0.06172839506172839,81.41975308641976,0)" xlink:href="#bD"/></g><path fill="#fff" d="M108 0H70L1-190h34L89-25l56-165h34" id="bE"/><g id="q"><use transform="matrix(0.06172839506172839,0,0,0.06172839506172839,0,0)" xlink:href="#aU"/><use transform="matrix(0.06172839506172839,0,0,0.06172839506172839,15.987654320987653,0)" xlink:href="#bb"/><use transform="matrix(0.06172839506172839,0,0,0.06172839506172839,28.333333333333332,0)" xlink:href="#bE"/><use transform="matrix(0.06172839506172839,0,0,0.06172839506172839,39.44444444444444,0)" xlink:href="#bc"/></g><path fill="#ffdba9" d="M29-66c0 49 71 55 82 11 13-52 22-111 33-165H93l5-28h85L149-74C151 11 7 37-1-60" id="bF"/><path fill="#ffdba9" d="M165-48c-4 18 1 34 23 27l-3 20c-29 8-62 0-52-35h-2C116-14 99 4 63 4 30 4 8-16 8-49c0-68 71-67 138-67 10-26 0-56-31-54-26 1-42 9-47 31l-32-5c8-67 160-71 144 15-5 28-9 54-15 81zM42-50c3 52 80 24 89-6 7-12 7-24 11-38-47 1-103-4-100 44" id="bG"/><path fill="#ffdba9" d="M89 0H52L20-190h33L74-25l89-165h34" id="bH"/><path fill="#ffdba9" d="M194-120c59 52 2 134-86 124-53-6-90-18-98-63l31-7c8 30 29 43 70 43 46 0 84-17 71-62-32-43-135-20-137-98-3-89 178-90 191-16l-30 9c-8-48-127-53-127 5 0 53 81 35 115 65" id="bI"/><path fill="#ffdba9" d="M44-68c0 29 11 47 38 47 30 0 42-19 51-41l28 9C148-21 126 4 82 4 31 4 10-29 12-85c3-77 74-140 146-93 12 8 15 23 18 40l-31 5c-1-22-13-36-36-36-52 0-65 49-65 101" id="bJ"/><path fill="#ffdba9" d="M66-151c12-25 30-51 66-40l-6 26C45-176 58-65 38 0H6l36-190h30" id="bK"/><path fill="#ffdba9" d="M50-231l6-30h32l-6 30H50zM6 0l37-190h31L37 0H6" id="bL"/><path fill="#ffdba9" d="M67-162c32-53 139-36 121 50C175-51 163 2 97 4 68 4 52-11 42-31 38 6 28 39 22 75H-9l50-265h29c-1 10 0 20-3 28zm89 36c0-26-10-43-35-43-54 0-67 50-69 103-1 29 14 45 42 46 53 0 62-58 62-106" id="bM"/><path fill="#ffdba9" d="M51-54c-9 22 5 41 31 30L79-1C43 14 10-4 19-52l22-115H19l5-23h22l19-43h21l-9 43h35l-4 23H73" id="bN"/><path fill="#ffdba9" d="M55-144c13 50 104 24 104 88C159 21 15 23 1-39l26-10c6 40 102 42 102-4-13-50-104-23-104-87 0-71 143-71 148-8l-29 4c-5-35-85-37-89 0" id="bO"/><g id="r"><use transform="matrix(0.06172839506172839,0,0,0.06172839506172839,0,0)" xlink:href="#bF"/><use transform="matrix(0.06172839506172839,0,0,0.06172839506172839,11.11111111111111,0)" xlink:href="#bG"/><use transform="matrix(0.06172839506172839,0,0,0.06172839506172839,23.45679012345679,0)" xlink:href="#bH"/><use transform="matrix(0.06172839506172839,0,0,0.06172839506172839,34.5679012345679,0)" xlink:href="#bG"/><use transform="matrix(0.06172839506172839,0,0,0.06172839506172839,46.913580246913575,0)" xlink:href="#bI"/><use transform="matrix(0.06172839506172839,0,0,0.06172839506172839,61.72839506172839,0)" xlink:href="#bJ"/><use transform="matrix(0.06172839506172839,0,0,0.06172839506172839,72.8395061728395,0)" xlink:href="#bK"/><use transform="matrix(0.06172839506172839,0,0,0.06172839506172839,80.18518518518519,0)" xlink:href="#bL"/><use transform="matrix(0.06172839506172839,0,0,0.06172839506172839,85.06172839506173,0)" xlink:href="#bM"/><use transform="matrix(0.06172839506172839,0,0,0.06172839506172839,97.40740740740742,0)" xlink:href="#bN"/><use transform="matrix(0.06172839506172839,0,0,0.06172839506172839,103.58024691358025,0)" xlink:href="#bO"/><path fill="#ffdba9" d="M-1.1 1.54h123.08v1.63H-1.12z"/></g><path fill="#ffdba9" d="M76-182c-8-73 125-95 125-21 0 51-54 56-87 74 9 28 22 52 38 74 18-21 33-48 44-75l23 10c-14 30-29 60-51 83 10 12 32 18 53 12l-3 23c-25 10-55 0-69-17C107 16 2 14 6-62c3-51 38-63 75-80-2-12-3-27-5-40zM36-62c0 51 68 50 96 25-18-23-33-52-44-82-24 12-52 20-52 57zm109-166c-39-2-46 38-38 76 28-11 67-14 67-50 0-17-12-25-29-26" id="bP"/><g id="s"><use transform="matrix(0.06172839506172839,0,0,0.06172839506172839,0,0)" xlink:href="#bP"/><path fill="#ffdba9" d="M-1.1 1.54h23.2v1.63H-1.1z"/></g><path fill="#ffdba9" d="M51-231l6-30h31l-6 30H51zM33 24C28 60 2 84-40 72c3-12-1-29 18-22C-5 49-1 37 2 19l41-209h32" id="bQ"/><path fill="#ffdba9" d="M24-61C-1-165 59-251 163-251c67 1 105 36 105 101 0 88-46 140-124 152 2 33 24 47 60 39l-3 23c-50 15-89-11-89-61-46-3-79-26-88-64zm210-73c6-55-18-91-72-90-77 1-111 51-111 125 0 49 24 75 73 75 72 0 103-45 110-110" id="bR"/><path fill="#ffdba9" d="M67 3c-93-2-31-127-26-193h32L48-50c-3 39 53 32 70 12 30-34 30-101 43-152h32L157 0h-30c1-10 6-24 4-33-14 20-29 37-64 36" id="bS"/><path fill="#ffdba9" d="M111-194c62-3 86 47 72 106H45c-7 38 6 69 45 68 27-1 43-14 53-32l24 11C152-15 129 4 87 4 38 3 12-23 12-71c0-70 32-119 99-123zm44 81c14-66-71-72-95-28-4 8-8 17-11 28h106" id="bT"/><path fill="#ffdba9" d="M198-190L69 30C53 58 25 83-20 72c4-11-1-27 19-22 33-1 43-29 59-52L20-190h32L79-34l84-156h35" id="bU"/><g id="t"><use transform="matrix(0.06172839506172839,0,0,0.06172839506172839,0,0)" xlink:href="#bQ"/><use transform="matrix(0.06172839506172839,0,0,0.06172839506172839,4.876543209876543,0)" xlink:href="#bR"/><use transform="matrix(0.06172839506172839,0,0,0.06172839506172839,22.160493827160494,0)" xlink:href="#bS"/><use transform="matrix(0.06172839506172839,0,0,0.06172839506172839,34.50617283950617,0)" xlink:href="#bT"/><use transform="matrix(0.06172839506172839,0,0,0.06172839506172839,46.85185185185185,0)" xlink:href="#bK"/><use transform="matrix(0.06172839506172839,0,0,0.06172839506172839,54.197530864197525,0)" xlink:href="#bK"/><use transform="matrix(0.06172839506172839,0,0,0.06172839506172839,61.5432098765432,0)" xlink:href="#bU"/><path fill="#ffdba9" d="M-1.1 1.54h74.87v1.63H-1.1z"/></g><path fill="#fff" d="M179 0l23-115H67L45 0H11l48-248h34L72-143h135l21-105h32L212 0h-33" id="bV"/><path fill="#fff" d="M248-111c6-24 9-61-24-58-72 9-57 108-77 169h-31l26-142c3-37-50-30-64-10C52-115 50-51 37 0H6l36-190h30c-1 10-6 24-4 32 13-43 101-52 105 5 13-22 29-41 61-41 90 0 28 129 23 194h-31" id="bW"/><g id="u"><use transform="matrix(0.06172839506172839,0,0,0.06172839506172839,0,0)" xlink:href="#bV"/><use transform="matrix(0.06172839506172839,0,0,0.06172839506172839,15.987654320987653,0)" xlink:href="#bw"/><use transform="matrix(0.06172839506172839,0,0,0.06172839506172839,28.333333333333332,0)" xlink:href="#bW"/><use transform="matrix(0.06172839506172839,0,0,0.06172839506172839,46.79012345679012,0)" xlink:href="#bq"/></g><path fill="#fff" d="M238-179c0 84-86 86-175 82L45 0H11l48-248c82 0 179-12 179 69zm-34 1c0-53-64-42-116-43l-19 98c63 0 135 9 135-55" id="bX"/><path fill="#fff" d="M165-48c-4 18 1 34 23 27l-3 20c-29 8-62 0-52-35h-2C116-14 99 4 63 4 30 4 8-16 8-49c0-68 71-67 138-67 10-26 0-56-31-54-26 1-42 9-47 31l-32-5c8-67 160-71 144 15-5 28-9 54-15 81zM42-50c3 52 80 24 89-6 7-12 7-24 11-38-47 1-103-4-100 44" id="bY"/><path fill="#fff" d="M103-194c29 0 47 14 56 36 2-11 5-23 8-32h30L160-5C157 61 82 97 21 62 9 55 4 45 1 30l28-7c7 42 83 31 92-3 4-16 9-38 13-55-13 20-29 36-62 36-40 0-60-25-60-64 0-71 23-131 91-131zm4 24c-53 0-58 54-61 104-2 27 10 44 36 44 49 0 65-50 67-102 1-29-15-46-42-46" id="bZ"/><g id="v"><use transform="matrix(0.06172839506172839,0,0,0.06172839506172839,0,0)" xlink:href="#bX"/><use transform="matrix(0.06172839506172839,0,0,0.06172839506172839,14.814814814814813,0)" xlink:href="#bY"/><use transform="matrix(0.06172839506172839,0,0,0.06172839506172839,27.160493827160494,0)" xlink:href="#bZ"/><use transform="matrix(0.06172839506172839,0,0,0.06172839506172839,39.50617283950617,0)" xlink:href="#bq"/></g><path fill="#fff" d="M119 0H84L31-248h34l41 218 126-218h36" id="ca"/><path fill="#fff" d="M55-144c13 50 104 24 104 88C159 21 15 23 1-39l26-10c6 40 102 42 102-4-13-50-104-23-104-87 0-71 143-71 148-8l-29 4c-5-35-85-37-89 0" id="cb"/><path fill="#fff" d="M6 0l50-261h32L37 0H6" id="cc"/><path fill="#fff" d="M-8 0l5-24 140-142H31l5-24h145l-5 24L36-24h119l-5 24H-8" id="cd"/><path fill="#fff" d="M67-158c22-48 132-52 116 29L158 0h-32l25-140c3-38-53-32-70-12C52-117 51-52 38 0H6l36-190h30" id="ce"/><g id="w"><use transform="matrix(0.06172839506172839,0,0,0.06172839506172839,0,0)" xlink:href="#ca"/><use transform="matrix(0.06172839506172839,0,0,0.06172839506172839,14.382716049382715,0)" xlink:href="#bz"/><use transform="matrix(0.06172839506172839,0,0,0.06172839506172839,19.25925925925926,0)" xlink:href="#cb"/><use transform="matrix(0.06172839506172839,0,0,0.06172839506172839,30.37037037037037,0)" xlink:href="#bm"/><use transform="matrix(0.06172839506172839,0,0,0.06172839506172839,42.71604938271605,0)" xlink:href="#bY"/><use transform="matrix(0.06172839506172839,0,0,0.06172839506172839,55.06172839506173,0)" xlink:href="#cc"/><use transform="matrix(0.06172839506172839,0,0,0.06172839506172839,59.93827160493827,0)" xlink:href="#bz"/><use transform="matrix(0.06172839506172839,0,0,0.06172839506172839,64.81481481481481,0)" xlink:href="#cd"/><use transform="matrix(0.06172839506172839,0,0,0.06172839506172839,75.92592592592592,0)" xlink:href="#bY"/><use transform="matrix(0.06172839506172839,0,0,0.06172839506172839,88.27160493827161,0)" xlink:href="#bp"/><use transform="matrix(0.06172839506172839,0,0,0.06172839506172839,94.44444444444444,0)" xlink:href="#bz"/><use transform="matrix(0.06172839506172839,0,0,0.06172839506172839,99.32098765432099,0)" xlink:href="#bw"/><use transform="matrix(0.06172839506172839,0,0,0.06172839506172839,111.66666666666667,0)" xlink:href="#ce"/></g><path fill="#fff" d="M222 0l43-216c-8 16-17 34-26 49L143 0h-22L81-216 41 0H11l48-248h42l38 208 116-208h45L252 0h-30" id="cf"/><g id="x"><use transform="matrix(0.06172839506172839,0,0,0.06172839506172839,0,0)" xlink:href="#cf"/><use transform="matrix(0.06172839506172839,0,0,0.06172839506172839,18.456790123456788,0)" xlink:href="#bq"/><use transform="matrix(0.06172839506172839,0,0,0.06172839506172839,30.80246913580247,0)" xlink:href="#bq"/><use transform="matrix(0.06172839506172839,0,0,0.06172839506172839,43.148148148148145,0)" xlink:href="#bp"/></g><path fill="#fff" d="M67-158c15-20 31-36 64-36 94 0 33 127 27 194h-32l25-140c3-38-53-32-70-12C52-117 51-51 37 0H6l51-261h31" id="cg"/><g id="y"><use transform="matrix(0.06172839506172839,0,0,0.06172839506172839,0,0)" xlink:href="#bi"/><use transform="matrix(0.06172839506172839,0,0,0.06172839506172839,13.518518518518517,0)" xlink:href="#cg"/><use transform="matrix(0.06172839506172839,0,0,0.06172839506172839,25.864197530864196,0)" xlink:href="#bq"/></g><g id="z"><use transform="matrix(0.06172839506172839,0,0,0.06172839506172839,0,0)" xlink:href="#bi"/><use transform="matrix(0.06172839506172839,0,0,0.06172839506172839,11.481481481481481,0)" xlink:href="#bq"/><use transform="matrix(0.06172839506172839,0,0,0.06172839506172839,23.827160493827158,0)" xlink:href="#bY"/><use transform="matrix(0.06172839506172839,0,0,0.06172839506172839,36.172839506172835,0)" xlink:href="#bW"/></g><g id="A"><use transform="matrix(0.06172839506172839,0,0,0.06172839506172839,0,0)" xlink:href="#bX"/><use transform="matrix(0.06172839506172839,0,0,0.06172839506172839,14.814814814814813,0)" xlink:href="#bY"/><use transform="matrix(0.06172839506172839,0,0,0.06172839506172839,27.160493827160494,0)" xlink:href="#bZ"/><use transform="matrix(0.06172839506172839,0,0,0.06172839506172839,39.50617283950617,0)" xlink:href="#bq"/></g><path fill="#fff" d="M14 0l48-248h34L48 0H14" id="ch"/><path fill="#fff" d="M44-68c0 29 11 47 38 47 30 0 42-19 51-41l28 9C148-21 126 4 82 4 31 4 10-29 12-85c3-77 74-140 146-93 12 8 15 23 18 40l-31 5c-1-22-13-36-36-36-52 0-65 49-65 101" id="ci"/><path fill="#fff" d="M89 0H52L20-190h33L74-25l89-165h34" id="cj"/><g id="B"><use transform="matrix(0.06172839506172839,0,0,0.06172839506172839,0,0)" xlink:href="#ch"/><use transform="matrix(0.06172839506172839,0,0,0.06172839506172839,6.172839506172839,0)" xlink:href="#ce"/><use transform="matrix(0.06172839506172839,0,0,0.06172839506172839,18.51851851851852,0)" xlink:href="#bp"/><use transform="matrix(0.06172839506172839,0,0,0.06172839506172839,24.691358024691358,0)" xlink:href="#bq"/><use transform="matrix(0.06172839506172839,0,0,0.06172839506172839,37.03703703703704,0)" xlink:href="#br"/><use transform="matrix(0.06172839506172839,0,0,0.06172839506172839,44.382716049382715,0)" xlink:href="#bY"/><use transform="matrix(0.06172839506172839,0,0,0.06172839506172839,56.72839506172839,0)" xlink:href="#ci"/><use transform="matrix(0.06172839506172839,0,0,0.06172839506172839,67.8395061728395,0)" xlink:href="#bp"/><use transform="matrix(0.06172839506172839,0,0,0.06172839506172839,74.01234567901234,0)" xlink:href="#bz"/><use transform="matrix(0.06172839506172839,0,0,0.06172839506172839,78.88888888888889,0)" xlink:href="#cj"/><use transform="matrix(0.06172839506172839,0,0,0.06172839506172839,90,0)" xlink:href="#bq"/></g><path fill="#fff" d="M248-139C247-14 144 9 11 0l48-248c105-6 190 8 189 109zm-34 0c1-70-52-87-126-82L50-27c98 7 163-21 164-112" id="ck"/><path fill="#fff" d="M68-162c25-46 127-43 121 31C183-60 169 1 98 4 69 5 53-11 43-31L36 0H5l52-261h31zm88 36c2-27-9-43-34-43-55 0-70 51-70 103 0 29 15 45 43 46 52 0 58-58 61-106" id="cl"/><g id="C"><use transform="matrix(0.06172839506172839,0,0,0.06172839506172839,0,0)" xlink:href="#ck"/><use transform="matrix(0.06172839506172839,0,0,0.06172839506172839,15.987654320987653,0)" xlink:href="#bY"/><use transform="matrix(0.06172839506172839,0,0,0.06172839506172839,28.333333333333332,0)" xlink:href="#bp"/><use transform="matrix(0.06172839506172839,0,0,0.06172839506172839,34.50617283950617,0)" xlink:href="#bY"/><use transform="matrix(0.06172839506172839,0,0,0.06172839506172839,46.85185185185185,0)" xlink:href="#bi"/><use transform="matrix(0.06172839506172839,0,0,0.06172839506172839,58.33333333333333,0)" xlink:href="#bY"/><use transform="matrix(0.06172839506172839,0,0,0.06172839506172839,70.67901234567901,0)" xlink:href="#cl"/><use transform="matrix(0.06172839506172839,0,0,0.06172839506172839,83.0246913580247,0)" xlink:href="#cc"/><use transform="matrix(0.06172839506172839,0,0,0.06172839506172839,87.90123456790124,0)" xlink:href="#bq"/></g><path fill="#0c7cba" d="M185-189c-5-48-123-54-124 2 14 75 158 14 163 119 3 78-121 87-175 55-17-10-28-26-33-46l33-7c5 56 141 63 141-1 0-78-155-14-162-118-5-82 145-84 179-34 5 7 8 16 11 25" id="cm"/><path fill="#0c7cba" d="M100-194c62-1 85 37 85 99 1 63-27 99-86 99S16-35 15-95c0-66 28-99 85-99zM99-20c44 1 53-31 53-75 0-43-8-75-51-75s-53 32-53 75 10 74 51 75" id="cn"/><path fill="#0c7cba" d="M84 4C-5 8 30-112 23-190h32v120c0 31 7 50 39 49 72-2 45-101 50-169h31l1 190h-30c-1-10 1-25-2-33-11 22-28 36-60 37" id="co"/><path fill="#0c7cba" d="M114-163C36-179 61-72 57 0H25l-1-190h30c1 12-1 29 2 39 6-27 23-49 58-41v29" id="cp"/><path fill="#0c7cba" d="M96-169c-40 0-48 33-48 73s9 75 48 75c24 0 41-14 43-38l32 2c-6 37-31 61-74 61-59 0-76-41-82-99-10-93 101-131 147-64 4 7 5 14 7 22l-32 3c-4-21-16-35-41-35" id="cq"/><path fill="#0c7cba" d="M24-231v-30h32v30H24zM24 0v-190h32V0H24" id="cr"/><path fill="#0c7cba" d="M117-194c89-4 53 116 60 194h-32v-121c0-31-8-49-39-48C34-167 62-67 57 0H25l-1-190h30c1 10-1 24 2 32 11-22 29-35 61-36" id="cs"/><path fill="#0c7cba" d="M177-190C167-65 218 103 67 71c-23-6-38-20-44-43l32-5c15 47 100 32 89-28v-30C133-14 115 1 83 1 29 1 15-40 15-95c0-56 16-97 71-98 29-1 48 16 59 35 1-10 0-23 2-32h30zM94-22c36 0 50-32 50-73 0-42-14-75-50-75-39 0-46 34-46 75s6 73 46 73" id="ct"/><g id="D"><use transform="matrix(0.06172839506172839,0,0,0.06172839506172839,0,0)" xlink:href="#cm"/><use transform="matrix(0.06172839506172839,0,0,0.06172839506172839,14.814814814814813,0)" xlink:href="#cn"/><use transform="matrix(0.06172839506172839,0,0,0.06172839506172839,27.160493827160494,0)" xlink:href="#co"/><use transform="matrix(0.06172839506172839,0,0,0.06172839506172839,39.50617283950617,0)" xlink:href="#cp"/><use transform="matrix(0.06172839506172839,0,0,0.06172839506172839,46.85185185185185,0)" xlink:href="#cq"/><use transform="matrix(0.06172839506172839,0,0,0.06172839506172839,57.96296296296296,0)" xlink:href="#cr"/><use transform="matrix(0.06172839506172839,0,0,0.06172839506172839,62.839506172839506,0)" xlink:href="#cs"/><use transform="matrix(0.06172839506172839,0,0,0.06172839506172839,75.18518518518519,0)" xlink:href="#ct"/></g><path fill="#0c7cba" d="M30-248c118-7 216 8 213 122C240-48 200 0 122 0H30v-248zM63-27c89 8 146-16 146-99s-60-101-146-95v194" id="cu"/><path fill="#0c7cba" d="M141-36C126-15 110 5 73 4 37 3 15-17 15-53c-1-64 63-63 125-63 3-35-9-54-41-54-24 1-41 7-42 31l-33-3c5-37 33-52 76-52 45 0 72 20 72 64v82c-1 20 7 32 28 27v20c-31 9-61-2-59-35zM48-53c0 20 12 33 32 33 41-3 63-29 60-74-43 2-92-5-92 41" id="cv"/><path fill="#0c7cba" d="M59-47c-2 24 18 29 38 22v24C64 9 27 4 27-40v-127H5v-23h24l9-43h21v43h35v23H59v120" id="cw"/><g id="E"><use transform="matrix(0.06172839506172839,0,0,0.06172839506172839,0,0)" xlink:href="#cu"/><use transform="matrix(0.06172839506172839,0,0,0.06172839506172839,15.987654320987653,0)" xlink:href="#cv"/><use transform="matrix(0.06172839506172839,0,0,0.06172839506172839,28.333333333333332,0)" xlink:href="#cw"/><use transform="matrix(0.06172839506172839,0,0,0.06172839506172839,34.50617283950617,0)" xlink:href="#cv"/></g><path fill="#0c7cba" d="M194-120c59 52 2 134-86 124-53-6-90-18-98-63l31-7c8 30 29 43 70 43 46 0 84-17 71-62-32-43-135-20-137-98-3-89 178-90 191-16l-30 9c-8-48-127-53-127 5 0 53 81 35 115 65" id="cx"/><path fill="#0c7cba" d="M165-48c-4 18 1 34 23 27l-3 20c-29 8-62 0-52-35h-2C116-14 99 4 63 4 30 4 8-16 8-49c0-68 71-67 138-67 10-26 0-56-31-54-26 1-42 9-47 31l-32-5c8-67 160-71 144 15-5 28-9 54-15 81zM42-50c3 52 80 24 89-6 7-12 7-24 11-38-47 1-103-4-100 44" id="cy"/><path fill="#0c7cba" d="M51-54c-9 22 5 41 31 30L79-1C43 14 10-4 19-52l22-115H19l5-23h22l19-43h21l-9 43h35l-4 23H73" id="cz"/><path fill="#0c7cba" d="M111-194c62-3 86 47 72 106H45c-7 38 6 69 45 68 27-1 43-14 53-32l24 11C152-15 129 4 87 4 38 3 12-23 12-71c0-70 32-119 99-123zm44 81c14-66-71-72-95-28-4 8-8 17-11 28h106" id="cA"/><path fill="#0c7cba" d="M6 0l50-261h32L37 0H6" id="cB"/><path fill="#0c7cba" d="M50-231l6-30h32l-6 30H50zM6 0l37-190h31L37 0H6" id="cC"/><g id="G"><use transform="matrix(0.06172839506172839,0,0,0.06172839506172839,0,0)" xlink:href="#cx"/><use transform="matrix(0.06172839506172839,0,0,0.06172839506172839,14.814814814814813,0)" xlink:href="#cy"/><use transform="matrix(0.06172839506172839,0,0,0.06172839506172839,27.160493827160494,0)" xlink:href="#cz"/><use transform="matrix(0.06172839506172839,0,0,0.06172839506172839,33.333333333333336,0)" xlink:href="#cA"/><use transform="matrix(0.06172839506172839,0,0,0.06172839506172839,45.67901234567901,0)" xlink:href="#cB"/><use transform="matrix(0.06172839506172839,0,0,0.06172839506172839,50.55555555555556,0)" xlink:href="#cB"/><use transform="matrix(0.06172839506172839,0,0,0.06172839506172839,55.4320987654321,0)" xlink:href="#cC"/><use transform="matrix(0.06172839506172839,0,0,0.06172839506172839,60.308641975308646,0)" xlink:href="#cz"/><use transform="matrix(0.06172839506172839,0,0,0.06172839506172839,66.48148148148148,0)" xlink:href="#cA"/></g><path fill="#0c7cba" d="M11 0l48-248h34L50-27h125l-5 27H11" id="cD"/><path fill="#0c7cba" d="M67 3c-93-2-31-127-26-193h32L48-50c-3 39 53 32 70 12 30-34 30-101 43-152h32L157 0h-30c1-10 6-24 4-33-14 20-29 37-64 36" id="cE"/><path fill="#0c7cba" d="M67-158c22-48 132-52 116 29L158 0h-32l25-140c3-38-53-32-70-12C52-117 51-52 38 0H6l36-190h30" id="cF"/><path fill="#0c7cba" d="M44-68c0 29 11 47 38 47 30 0 42-19 51-41l28 9C148-21 126 4 82 4 31 4 10-29 12-85c3-77 74-140 146-93 12 8 15 23 18 40l-31 5c-1-22-13-36-36-36-52 0-65 49-65 101" id="cG"/><path fill="#0c7cba" d="M67-158c15-20 31-36 64-36 94 0 33 127 27 194h-32l25-140c3-38-53-32-70-12C52-117 51-51 37 0H6l51-261h31" id="cH"/><g id="H"><use transform="matrix(0.06172839506172839,0,0,0.06172839506172839,0,0)" xlink:href="#cD"/><use transform="matrix(0.06172839506172839,0,0,0.06172839506172839,12.345679012345679,0)" xlink:href="#cy"/><use transform="matrix(0.06172839506172839,0,0,0.06172839506172839,24.691358024691358,0)" xlink:href="#cE"/><use transform="matrix(0.06172839506172839,0,0,0.06172839506172839,37.03703703703704,0)" xlink:href="#cF"/><use transform="matrix(0.06172839506172839,0,0,0.06172839506172839,49.382716049382715,0)" xlink:href="#cG"/><use transform="matrix(0.06172839506172839,0,0,0.06172839506172839,60.49382716049382,0)" xlink:href="#cH"/></g><path fill="#0c7cba" d="M248-139C247-14 144 9 11 0l48-248c105-6 190 8 189 109zm-34 0c1-70-52-87-126-82L50-27c98 7 163-21 164-112" id="cI"/><path fill="#0c7cba" d="M219-77C219 17 104-2 11 0l48-248c73 2 169-15 169 57 0 38-24 54-60 60 29 5 51 21 51 54zm-26-111c0-44-62-31-105-33l-16 79c55 0 121 9 121-46zm-7 110c-1-49-69-36-119-38L50-27c61-1 137 12 136-51" id="cJ"/><path fill="#0c7cba" d="M55-144c13 50 104 24 104 88C159 21 15 23 1-39l26-10c6 40 102 42 102-4-13-50-104-23-104-87 0-71 143-71 148-8l-29 4c-5-35-85-37-89 0" id="cK"/><g id="I"><use transform="matrix(0.06172839506172839,0,0,0.06172839506172839,0,0)" xlink:href="#cI"/><use transform="matrix(0.06172839506172839,0,0,0.06172839506172839,15.987654320987653,0)" xlink:href="#cy"/><use transform="matrix(0.06172839506172839,0,0,0.06172839506172839,28.333333333333332,0)" xlink:href="#cz"/><use transform="matrix(0.06172839506172839,0,0,0.06172839506172839,34.50617283950617,0)" xlink:href="#cy"/><use transform="matrix(0.06172839506172839,0,0,0.06172839506172839,46.85185185185185,0)" xlink:href="#cJ"/><use transform="matrix(0.06172839506172839,0,0,0.06172839506172839,61.66666666666666,0)" xlink:href="#cy"/><use transform="matrix(0.06172839506172839,0,0,0.06172839506172839,74.01234567901234,0)" xlink:href="#cK"/><use transform="matrix(0.06172839506172839,0,0,0.06172839506172839,85.12345679012346,0)" xlink:href="#cA"/></g><path fill="#0c7cba" d="M205 0l-28-72H64L36 0H1l101-248h38L239 0h-34zm-38-99l-47-123c-12 45-31 82-46 123h93" id="cL"/><path fill="#0c7cba" d="M30-248c87 1 191-15 191 75 0 78-77 80-158 76V0H30v-248zm33 125c57 0 124 11 124-50 0-59-68-47-124-48v98" id="cM"/><path fill="#0c7cba" d="M33 0v-248h34V0H33" id="cN"/><g id="J"><use transform="matrix(0.06234567901234567,0,0,0.06234567901234567,0,0)" xlink:href="#cL"/><use transform="matrix(0.06234567901234567,0,0,0.06234567901234567,14.96296296296296,0)" xlink:href="#cM"/><use transform="matrix(0.06234567901234567,0,0,0.06234567901234567,29.92592592592592,0)" xlink:href="#cN"/></g><path fill="#0c7cba" d="M233-177c-1 41-23 64-60 70L243 0h-38l-65-103H63V0H30v-248c88 3 205-21 203 71zM63-129c60-2 137 13 137-47 0-61-80-42-137-45v92" id="cO"/><path fill="#0c7cba" d="M100-194c63 0 86 42 84 106H49c0 40 14 67 53 68 26 1 43-12 49-29l28 8c-11 28-37 45-77 45C44 4 14-33 15-96c1-61 26-98 85-98zm52 81c6-60-76-77-97-28-3 7-6 17-6 28h103" id="cP"/><path fill="#0c7cba" d="M135-143c-3-34-86-38-87 0 15 53 115 12 119 90S17 21 10-45l28-5c4 36 97 45 98 0-10-56-113-15-118-90-4-57 82-63 122-42 12 7 21 19 24 35" id="cQ"/><g id="K"><use transform="matrix(0.06234567901234567,0,0,0.06234567901234567,0,0)" xlink:href="#cO"/><use transform="matrix(0.06234567901234567,0,0,0.06234567901234567,16.147530864197527,0)" xlink:href="#cn"/><use transform="matrix(0.06234567901234567,0,0,0.06234567901234567,28.61666666666666,0)" xlink:href="#co"/><use transform="matrix(0.06234567901234567,0,0,0.06234567901234567,41.08580246913579,0)" xlink:href="#cw"/><use transform="matrix(0.06234567901234567,0,0,0.06234567901234567,47.320370370370355,0)" xlink:href="#cP"/><use transform="matrix(0.06234567901234567,0,0,0.06234567901234567,59.78950617283949,0)" xlink:href="#cQ"/></g><path fill="#0c7cba" d="M54-68v-132l118 66" id="cR"/><use transform="matrix(0.06172839506172839,0,0,0.06172839506172839,0,0)" xlink:href="#cR" id="L"/><path fill="#0c7cba" d="M24-61C-1-165 59-251 163-251c67 1 105 36 105 101 0 88-46 140-124 152 2 33 24 47 60 39l-3 23c-50 15-89-11-89-61-46-3-79-26-88-64zm210-73c6-55-18-91-72-90-77 1-111 51-111 125 0 49 24 75 73 75 72 0 103-45 110-110" id="cS"/><path fill="#0c7cba" d="M187 0l-14-72H61L19 0h-37l149-248h38L221 0h-34zm-19-99l-22-123L76-99h92" id="cT"/><path fill="#0c7cba" d="M248-111c6-24 9-61-24-58-72 9-57 108-77 169h-31l26-142c3-37-50-30-64-10C52-115 50-51 37 0H6l36-190h30c-1 10-6 24-4 32 13-43 101-52 105 5 13-22 29-41 61-41 90 0 28 129 23 194h-31" id="cU"/><path fill="#0c7cba" d="M198-190L69 30C53 58 25 83-20 72c4-11-1-27 19-22 33-1 43-29 59-52L20-190h32L79-34l84-156h35" id="cV"/><g id="M"><use transform="matrix(0.06172839506172839,0,0,0.06172839506172839,0,0)" xlink:href="#cx"/><use transform="matrix(0.06172839506172839,0,0,0.06172839506172839,14.814814814814813,0)" xlink:href="#cS"/><use transform="matrix(0.06172839506172839,0,0,0.06172839506172839,32.09876543209876,0)" xlink:href="#cD"/><use transform="matrix(0.06172839506172839,0,0,0.06172839506172839,44.444444444444436,0)" xlink:href="#cT"/><use transform="matrix(0.06172839506172839,0,0,0.06172839506172839,59.25925925925925,0)" xlink:href="#cB"/><use transform="matrix(0.06172839506172839,0,0,0.06172839506172839,64.1358024691358,0)" xlink:href="#cG"/><use transform="matrix(0.06172839506172839,0,0,0.06172839506172839,75.24691358024691,0)" xlink:href="#cH"/><use transform="matrix(0.06172839506172839,0,0,0.06172839506172839,87.5925925925926,0)" xlink:href="#cA"/><use transform="matrix(0.06172839506172839,0,0,0.06172839506172839,99.93827160493828,0)" xlink:href="#cU"/><use transform="matrix(0.06172839506172839,0,0,0.06172839506172839,118.39506172839506,0)" xlink:href="#cV"/></g><path fill="#0c7cba" d="M238-179c0 84-86 86-175 82L45 0H11l48-248c82 0 179-12 179 69zm-34 1c0-53-64-42-116-43l-19 98c63 0 135 9 135-55" id="cW"/><path fill="#0c7cba" d="M30-147c31-64 166-65 159 27C183-49 158 1 86 4 9 8 1-88 30-147zM88-20c53 0 68-48 68-100 0-31-11-51-44-50-52 1-68 46-68 97 0 32 13 53 44 53" id="cX"/><g id="N"><use transform="matrix(0.06172839506172839,0,0,0.06172839506172839,0,0)" xlink:href="#cW"/><use transform="matrix(0.06172839506172839,0,0,0.06172839506172839,14.814814814814813,0)" xlink:href="#cV"/><use transform="matrix(0.06172839506172839,0,0,0.06172839506172839,25.925925925925924,0)" xlink:href="#cz"/><use transform="matrix(0.06172839506172839,0,0,0.06172839506172839,32.098765432098766,0)" xlink:href="#cH"/><use transform="matrix(0.06172839506172839,0,0,0.06172839506172839,44.44444444444444,0)" xlink:href="#cX"/><use transform="matrix(0.06172839506172839,0,0,0.06172839506172839,56.79012345679012,0)" xlink:href="#cF"/></g><path fill="#0c7cba" d="M87-220l-18 92h140l-5 28H64L45 0H11l48-248h178l-5 28H87" id="cY"/><path fill="#0c7cba" d="M127 0L80-88 50-66 37 0H6l51-261h31L57-100l99-90h39l-93 82L161 0h-34" id="cZ"/><g id="O"><use transform="matrix(0.06172839506172839,0,0,0.06172839506172839,0,0)" xlink:href="#cY"/><use transform="matrix(0.06172839506172839,0,0,0.06172839506172839,13.518518518518517,0)" xlink:href="#cB"/><use transform="matrix(0.06172839506172839,0,0,0.06172839506172839,18.39506172839506,0)" xlink:href="#cy"/><use transform="matrix(0.06172839506172839,0,0,0.06172839506172839,30.74074074074074,0)" xlink:href="#cK"/><use transform="matrix(0.06172839506172839,0,0,0.06172839506172839,41.85185185185185,0)" xlink:href="#cZ"/></g><path fill="#0c7cba" d="M67-162c32-53 139-36 121 50C175-51 163 2 97 4 68 4 52-11 42-31 38 6 28 39 22 75H-9l50-265h29c-1 10 0 20-3 28zm89 36c0-26-10-43-35-43-54 0-67 50-69 103-1 29 14 45 42 46 53 0 62-58 62-106" id="da"/><g id="P"><use transform="matrix(0.06172839506172839,0,0,0.06172839506172839,0,0)" xlink:href="#cT"/><use transform="matrix(0.06172839506172839,0,0,0.06172839506172839,14.814814814814813,0)" xlink:href="#da"/><use transform="matrix(0.06172839506172839,0,0,0.06172839506172839,27.160493827160494,0)" xlink:href="#da"/></g><path fill="#0c7cba" d="M14 0l48-248h34L48 0H14" id="db"/><g id="Q"><use transform="matrix(0.06172839506172839,0,0,0.06172839506172839,0,0)" xlink:href="#cT"/><use transform="matrix(0.06172839506172839,0,0,0.06172839506172839,14.814814814814813,0)" xlink:href="#cW"/><use transform="matrix(0.06172839506172839,0,0,0.06172839506172839,29.629629629629626,0)" xlink:href="#db"/></g><path fill="#0c7cba" d="M249-183c0 48-29 72-75 77L221 0h-36l-43-103H65L45 0H11l48-248c83 2 190-17 190 65zm-34 3c0-55-74-39-127-41l-18 92c63-1 145 13 145-51" id="dc"/><g id="R"><use transform="matrix(0.06172839506172839,0,0,0.06172839506172839,0,0)" xlink:href="#dc"/><use transform="matrix(0.06172839506172839,0,0,0.06172839506172839,15.987654320987653,0)" xlink:href="#cX"/><use transform="matrix(0.06172839506172839,0,0,0.06172839506172839,28.333333333333332,0)" xlink:href="#cE"/><use transform="matrix(0.06172839506172839,0,0,0.06172839506172839,40.67901234567901,0)" xlink:href="#cz"/><use transform="matrix(0.06172839506172839,0,0,0.06172839506172839,46.851851851851855,0)" xlink:href="#cA"/><use transform="matrix(0.06172839506172839,0,0,0.06172839506172839,59.19753086419753,0)" xlink:href="#cK"/></g><path fill="#834187" d="M63-220v92h138v28H63V0H30v-248h175v28H63" id="dd"/><path fill="#834187" d="M114-163C36-179 61-72 57 0H25l-1-190h30c1 12-1 29 2 39 6-27 23-49 58-41v29" id="de"/><path fill="#834187" d="M100-194c62-1 85 37 85 99 1 63-27 99-86 99S16-35 15-95c0-66 28-99 85-99zM99-20c44 1 53-31 53-75 0-43-8-75-51-75s-53 32-53 75 10 74 51 75" id="df"/><path fill="#834187" d="M117-194c89-4 53 116 60 194h-32v-121c0-31-8-49-39-48C34-167 62-67 57 0H25l-1-190h30c1 10-1 24 2 32 11-22 29-35 61-36" id="dg"/><path fill="#834187" d="M59-47c-2 24 18 29 38 22v24C64 9 27 4 27-40v-127H5v-23h24l9-43h21v43h35v23H59v120" id="dh"/><path fill="#834187" d="M16-82v-28h88v28H16" id="di"/><path fill="#834187" d="M100-194c63 0 86 42 84 106H49c0 40 14 67 53 68 26 1 43-12 49-29l28 8c-11 28-37 45-77 45C44 4 14-33 15-96c1-61 26-98 85-98zm52 81c6-60-76-77-97-28-3 7-6 17-6 28h103" id="dj"/><path fill="#834187" d="M85-194c31 0 48 13 60 33l-1-100h32l1 261h-30c-2-10 0-23-3-31C134-8 116 4 85 4 32 4 16-35 15-94c0-66 23-100 70-100zm9 24c-40 0-46 34-46 75 0 40 6 74 45 74 42 0 51-32 51-76 0-42-9-74-50-73" id="dk"/><g id="T"><use transform="matrix(0.06172839506172839,0,0,0.06172839506172839,0,0)" xlink:href="#dd"/><use transform="matrix(0.06172839506172839,0,0,0.06172839506172839,13.518518518518517,0)" xlink:href="#de"/><use transform="matrix(0.06172839506172839,0,0,0.06172839506172839,20.864197530864196,0)" xlink:href="#df"/><use transform="matrix(0.06172839506172839,0,0,0.06172839506172839,33.20987654320987,0)" xlink:href="#dg"/><use transform="matrix(0.06172839506172839,0,0,0.06172839506172839,45.55555555555555,0)" xlink:href="#dh"/><use transform="matrix(0.06172839506172839,0,0,0.06172839506172839,51.72839506172839,0)" xlink:href="#di"/><use transform="matrix(0.06172839506172839,0,0,0.06172839506172839,59.07407407407407,0)" xlink:href="#dj"/><use transform="matrix(0.06172839506172839,0,0,0.06172839506172839,71.41975308641975,0)" xlink:href="#dg"/><use transform="matrix(0.06172839506172839,0,0,0.06172839506172839,83.76543209876543,0)" xlink:href="#dk"/></g><path fill="#834187" d="M30-248c118-7 216 8 213 122C240-48 200 0 122 0H30v-248zM63-27c89 8 146-16 146-99s-60-101-146-95v194" id="dl"/><path fill="#834187" d="M108 0H70L1-190h34L89-25l56-165h34" id="dm"/><path fill="#834187" d="M135-143c-3-34-86-38-87 0 15 53 115 12 119 90S17 21 10-45l28-5c4 36 97 45 98 0-10-56-113-15-118-90-4-57 82-63 122-42 12 7 21 19 24 35" id="dn"/><g id="U"><use transform="matrix(0.06172839506172839,0,0,0.06172839506172839,0,0)" xlink:href="#dl"/><use transform="matrix(0.06172839506172839,0,0,0.06172839506172839,15.987654320987653,0)" xlink:href="#dj"/><use transform="matrix(0.06172839506172839,0,0,0.06172839506172839,28.333333333333332,0)" xlink:href="#dm"/><use transform="matrix(0.06172839506172839,0,0,0.06172839506172839,39.44444444444444,0)" xlink:href="#dn"/></g><path fill="#c92d39" d="M29-66c0 49 71 55 82 11 13-52 22-111 33-165H93l5-28h85L149-74C151 11 7 37-1-60" id="do"/><path fill="#c92d39" d="M165-48c-4 18 1 34 23 27l-3 20c-29 8-62 0-52-35h-2C116-14 99 4 63 4 30 4 8-16 8-49c0-68 71-67 138-67 10-26 0-56-31-54-26 1-42 9-47 31l-32-5c8-67 160-71 144 15-5 28-9 54-15 81zM42-50c3 52 80 24 89-6 7-12 7-24 11-38-47 1-103-4-100 44" id="dp"/><path fill="#c92d39" d="M89 0H52L20-190h33L74-25l89-165h34" id="dq"/><path fill="#c92d39" d="M194-120c59 52 2 134-86 124-53-6-90-18-98-63l31-7c8 30 29 43 70 43 46 0 84-17 71-62-32-43-135-20-137-98-3-89 178-90 191-16l-30 9c-8-48-127-53-127 5 0 53 81 35 115 65" id="dr"/><path fill="#c92d39" d="M44-68c0 29 11 47 38 47 30 0 42-19 51-41l28 9C148-21 126 4 82 4 31 4 10-29 12-85c3-77 74-140 146-93 12 8 15 23 18 40l-31 5c-1-22-13-36-36-36-52 0-65 49-65 101" id="ds"/><path fill="#c92d39" d="M66-151c12-25 30-51 66-40l-6 26C45-176 58-65 38 0H6l36-190h30" id="dt"/><path fill="#c92d39" d="M50-231l6-30h32l-6 30H50zM6 0l37-190h31L37 0H6" id="du"/><path fill="#c92d39" d="M67-162c32-53 139-36 121 50C175-51 163 2 97 4 68 4 52-11 42-31 38 6 28 39 22 75H-9l50-265h29c-1 10 0 20-3 28zm89 36c0-26-10-43-35-43-54 0-67 50-69 103-1 29 14 45 42 46 53 0 62-58 62-106" id="dv"/><path fill="#c92d39" d="M51-54c-9 22 5 41 31 30L79-1C43 14 10-4 19-52l22-115H19l5-23h22l19-43h21l-9 43h35l-4 23H73" id="dw"/><path fill="#c92d39" d="M55-144c13 50 104 24 104 88C159 21 15 23 1-39l26-10c6 40 102 42 102-4-13-50-104-23-104-87 0-71 143-71 148-8l-29 4c-5-35-85-37-89 0" id="dx"/><g id="V"><use transform="matrix(0.06172839506172839,0,0,0.06172839506172839,0,0)" xlink:href="#do"/><use transform="matrix(0.06172839506172839,0,0,0.06172839506172839,11.11111111111111,0)" xlink:href="#dp"/><use transform="matrix(0.06172839506172839,0,0,0.06172839506172839,23.45679012345679,0)" xlink:href="#dq"/><use transform="matrix(0.06172839506172839,0,0,0.06172839506172839,34.5679012345679,0)" xlink:href="#dp"/><use transform="matrix(0.06172839506172839,0,0,0.06172839506172839,46.913580246913575,0)" xlink:href="#dr"/><use transform="matrix(0.06172839506172839,0,0,0.06172839506172839,61.72839506172839,0)" xlink:href="#ds"/><use transform="matrix(0.06172839506172839,0,0,0.06172839506172839,72.8395061728395,0)" xlink:href="#dt"/><use transform="matrix(0.06172839506172839,0,0,0.06172839506172839,80.18518518518519,0)" xlink:href="#du"/><use transform="matrix(0.06172839506172839,0,0,0.06172839506172839,85.06172839506173,0)" xlink:href="#dv"/><use transform="matrix(0.06172839506172839,0,0,0.06172839506172839,97.40740740740742,0)" xlink:href="#dw"/><use transform="matrix(0.06172839506172839,0,0,0.06172839506172839,103.58024691358025,0)" xlink:href="#dx"/><path fill="#c92d39" d="M-1.1 1.54h123.08v1.63H-1.12z"/></g><path fill="#c92d39" d="M76-182c-8-73 125-95 125-21 0 51-54 56-87 74 9 28 22 52 38 74 18-21 33-48 44-75l23 10c-14 30-29 60-51 83 10 12 32 18 53 12l-3 23c-25 10-55 0-69-17C107 16 2 14 6-62c3-51 38-63 75-80-2-12-3-27-5-40zM36-62c0 51 68 50 96 25-18-23-33-52-44-82-24 12-52 20-52 57zm109-166c-39-2-46 38-38 76 28-11 67-14 67-50 0-17-12-25-29-26" id="dy"/><g id="W"><use transform="matrix(0.06172839506172839,0,0,0.06172839506172839,0,0)" xlink:href="#dy"/><path fill="#c92d39" d="M-1.1 1.54h23.2v1.63H-1.1z"/></g><path fill="#c92d39" d="M51-231l6-30h31l-6 30H51zM33 24C28 60 2 84-40 72c3-12-1-29 18-22C-5 49-1 37 2 19l41-209h32" id="dz"/><path fill="#c92d39" d="M24-61C-1-165 59-251 163-251c67 1 105 36 105 101 0 88-46 140-124 152 2 33 24 47 60 39l-3 23c-50 15-89-11-89-61-46-3-79-26-88-64zm210-73c6-55-18-91-72-90-77 1-111 51-111 125 0 49 24 75 73 75 72 0 103-45 110-110" id="dA"/><path fill="#c92d39" d="M67 3c-93-2-31-127-26-193h32L48-50c-3 39 53 32 70 12 30-34 30-101 43-152h32L157 0h-30c1-10 6-24 4-33-14 20-29 37-64 36" id="dB"/><path fill="#c92d39" d="M111-194c62-3 86 47 72 106H45c-7 38 6 69 45 68 27-1 43-14 53-32l24 11C152-15 129 4 87 4 38 3 12-23 12-71c0-70 32-119 99-123zm44 81c14-66-71-72-95-28-4 8-8 17-11 28h106" id="dC"/><path fill="#c92d39" d="M198-190L69 30C53 58 25 83-20 72c4-11-1-27 19-22 33-1 43-29 59-52L20-190h32L79-34l84-156h35" id="dD"/><g id="X"><use transform="matrix(0.06172839506172839,0,0,0.06172839506172839,0,0)" xlink:href="#dz"/><use transform="matrix(0.06172839506172839,0,0,0.06172839506172839,4.876543209876543,0)" xlink:href="#dA"/><use transform="matrix(0.06172839506172839,0,0,0.06172839506172839,22.160493827160494,0)" xlink:href="#dB"/><use transform="matrix(0.06172839506172839,0,0,0.06172839506172839,34.50617283950617,0)" xlink:href="#dC"/><use transform="matrix(0.06172839506172839,0,0,0.06172839506172839,46.85185185185185,0)" xlink:href="#dt"/><use transform="matrix(0.06172839506172839,0,0,0.06172839506172839,54.197530864197525,0)" xlink:href="#dt"/><use transform="matrix(0.06172839506172839,0,0,0.06172839506172839,61.5432098765432,0)" xlink:href="#dD"/><path fill="#c92d39" d="M-1.1 1.54h74.87v1.63H-1.1z"/></g><path fill="#834187" d="M54-68v-132l118 66" id="dE"/><use transform="matrix(0.06172839506172839,0,0,0.06172839506172839,0,0)" xlink:href="#dE" id="Y"/><path fill="#834187" d="M179 0l23-115H67L45 0H11l48-248h34L72-143h135l21-105h32L212 0h-33" id="dF"/><path fill="#834187" d="M30-147c31-64 166-65 159 27C183-49 158 1 86 4 9 8 1-88 30-147zM88-20c53 0 68-48 68-100 0-31-11-51-44-50-52 1-68 46-68 97 0 32 13 53 44 53" id="dG"/><path fill="#834187" d="M248-111c6-24 9-61-24-58-72 9-57 108-77 169h-31l26-142c3-37-50-30-64-10C52-115 50-51 37 0H6l36-190h30c-1 10-6 24-4 32 13-43 101-52 105 5 13-22 29-41 61-41 90 0 28 129 23 194h-31" id="dH"/><path fill="#834187" d="M111-194c62-3 86 47 72 106H45c-7 38 6 69 45 68 27-1 43-14 53-32l24 11C152-15 129 4 87 4 38 3 12-23 12-71c0-70 32-119 99-123zm44 81c14-66-71-72-95-28-4 8-8 17-11 28h106" id="dI"/><g id="Z"><use transform="matrix(0.06172839506172839,0,0,0.06172839506172839,0,0)" xlink:href="#dF"/><use transform="matrix(0.06172839506172839,0,0,0.06172839506172839,15.987654320987653,0)" xlink:href="#dG"/><use transform="matrix(0.06172839506172839,0,0,0.06172839506172839,28.333333333333332,0)" xlink:href="#dH"/><use transform="matrix(0.06172839506172839,0,0,0.06172839506172839,46.79012345679012,0)" xlink:href="#dI"/></g><path fill="#834187" d="M238-179c0 84-86 86-175 82L45 0H11l48-248c82 0 179-12 179 69zm-34 1c0-53-64-42-116-43l-19 98c63 0 135 9 135-55" id="dJ"/><path fill="#834187" d="M165-48c-4 18 1 34 23 27l-3 20c-29 8-62 0-52-35h-2C116-14 99 4 63 4 30 4 8-16 8-49c0-68 71-67 138-67 10-26 0-56-31-54-26 1-42 9-47 31l-32-5c8-67 160-71 144 15-5 28-9 54-15 81zM42-50c3 52 80 24 89-6 7-12 7-24 11-38-47 1-103-4-100 44" id="dK"/><path fill="#834187" d="M103-194c29 0 47 14 56 36 2-11 5-23 8-32h30L160-5C157 61 82 97 21 62 9 55 4 45 1 30l28-7c7 42 83 31 92-3 4-16 9-38 13-55-13 20-29 36-62 36-40 0-60-25-60-64 0-71 23-131 91-131zm4 24c-53 0-58 54-61 104-2 27 10 44 36 44 49 0 65-50 67-102 1-29-15-46-42-46" id="dL"/><g id="aa"><use transform="matrix(0.06172839506172839,0,0,0.06172839506172839,0,0)" xlink:href="#dJ"/><use transform="matrix(0.06172839506172839,0,0,0.06172839506172839,14.814814814814813,0)" xlink:href="#dK"/><use transform="matrix(0.06172839506172839,0,0,0.06172839506172839,27.160493827160494,0)" xlink:href="#dL"/><use transform="matrix(0.06172839506172839,0,0,0.06172839506172839,39.50617283950617,0)" xlink:href="#dI"/></g><path fill="#834187" d="M119 0H84L31-248h34l41 218 126-218h36" id="dM"/><path fill="#834187" d="M50-231l6-30h32l-6 30H50zM6 0l37-190h31L37 0H6" id="dN"/><path fill="#834187" d="M55-144c13 50 104 24 104 88C159 21 15 23 1-39l26-10c6 40 102 42 102-4-13-50-104-23-104-87 0-71 143-71 148-8l-29 4c-5-35-85-37-89 0" id="dO"/><path fill="#834187" d="M67 3c-93-2-31-127-26-193h32L48-50c-3 39 53 32 70 12 30-34 30-101 43-152h32L157 0h-30c1-10 6-24 4-33-14 20-29 37-64 36" id="dP"/><path fill="#834187" d="M6 0l50-261h32L37 0H6" id="dQ"/><path fill="#834187" d="M-8 0l5-24 140-142H31l5-24h145l-5 24L36-24h119l-5 24H-8" id="dR"/><path fill="#834187" d="M51-54c-9 22 5 41 31 30L79-1C43 14 10-4 19-52l22-115H19l5-23h22l19-43h21l-9 43h35l-4 23H73" id="dS"/><path fill="#834187" d="M67-158c22-48 132-52 116 29L158 0h-32l25-140c3-38-53-32-70-12C52-117 51-52 38 0H6l36-190h30" id="dT"/><g id="ab"><use transform="matrix(0.06172839506172839,0,0,0.06172839506172839,0,0)" xlink:href="#dM"/><use transform="matrix(0.06172839506172839,0,0,0.06172839506172839,14.382716049382715,0)" xlink:href="#dN"/><use transform="matrix(0.06172839506172839,0,0,0.06172839506172839,19.25925925925926,0)" xlink:href="#dO"/><use transform="matrix(0.06172839506172839,0,0,0.06172839506172839,30.37037037037037,0)" xlink:href="#dP"/><use transform="matrix(0.06172839506172839,0,0,0.06172839506172839,42.71604938271605,0)" xlink:href="#dK"/><use transform="matrix(0.06172839506172839,0,0,0.06172839506172839,55.06172839506173,0)" xlink:href="#dQ"/><use transform="matrix(0.06172839506172839,0,0,0.06172839506172839,59.93827160493827,0)" xlink:href="#dN"/><use transform="matrix(0.06172839506172839,0,0,0.06172839506172839,64.81481481481481,0)" xlink:href="#dR"/><use transform="matrix(0.06172839506172839,0,0,0.06172839506172839,75.92592592592592,0)" xlink:href="#dK"/><use transform="matrix(0.06172839506172839,0,0,0.06172839506172839,88.27160493827161,0)" xlink:href="#dS"/><use transform="matrix(0.06172839506172839,0,0,0.06172839506172839,94.44444444444444,0)" xlink:href="#dN"/><use transform="matrix(0.06172839506172839,0,0,0.06172839506172839,99.32098765432099,0)" xlink:href="#dG"/><use transform="matrix(0.06172839506172839,0,0,0.06172839506172839,111.66666666666667,0)" xlink:href="#dT"/></g><path fill="#834187" d="M222 0l43-216c-8 16-17 34-26 49L143 0h-22L81-216 41 0H11l48-248h42l38 208 116-208h45L252 0h-30" id="dU"/><g id="ac"><use transform="matrix(0.06172839506172839,0,0,0.06172839506172839,0,0)" xlink:href="#dU"/><use transform="matrix(0.06172839506172839,0,0,0.06172839506172839,18.456790123456788,0)" xlink:href="#dI"/><use transform="matrix(0.06172839506172839,0,0,0.06172839506172839,30.80246913580247,0)" xlink:href="#dI"/><use transform="matrix(0.06172839506172839,0,0,0.06172839506172839,43.148148148148145,0)" xlink:href="#dS"/></g><path fill="#834187" d="M151-220L108 0H75l42-220H32l6-28h203l-5 28h-85" id="dV"/><path fill="#834187" d="M67-158c15-20 31-36 64-36 94 0 33 127 27 194h-32l25-140c3-38-53-32-70-12C52-117 51-51 37 0H6l51-261h31" id="dW"/><g id="ad"><use transform="matrix(0.06172839506172839,0,0,0.06172839506172839,0,0)" xlink:href="#dV"/><use transform="matrix(0.06172839506172839,0,0,0.06172839506172839,13.518518518518517,0)" xlink:href="#dW"/><use transform="matrix(0.06172839506172839,0,0,0.06172839506172839,25.864197530864196,0)" xlink:href="#dI"/></g><g id="ae"><use transform="matrix(0.06172839506172839,0,0,0.06172839506172839,0,0)" xlink:href="#dV"/><use transform="matrix(0.06172839506172839,0,0,0.06172839506172839,11.481481481481481,0)" xlink:href="#dI"/><use transform="matrix(0.06172839506172839,0,0,0.06172839506172839,23.827160493827158,0)" xlink:href="#dK"/><use transform="matrix(0.06172839506172839,0,0,0.06172839506172839,36.172839506172835,0)" xlink:href="#dH"/></g><g id="af"><use transform="matrix(0.06172839506172839,0,0,0.06172839506172839,0,0)" xlink:href="#dJ"/><use transform="matrix(0.06172839506172839,0,0,0.06172839506172839,14.814814814814813,0)" xlink:href="#dK"/><use transform="matrix(0.06172839506172839,0,0,0.06172839506172839,27.160493827160494,0)" xlink:href="#dL"/><use transform="matrix(0.06172839506172839,0,0,0.06172839506172839,39.50617283950617,0)" xlink:href="#dI"/></g><path fill="#834187" d="M187 0l-14-72H61L19 0h-37l149-248h38L221 0h-34zm-19-99l-22-123L76-99h92" id="dX"/><path fill="#834187" d="M14 0l48-248h34L48 0H14" id="dY"/><g id="ag"><use transform="matrix(0.06172839506172839,0,0,0.06172839506172839,0,0)" xlink:href="#dX"/><use transform="matrix(0.06172839506172839,0,0,0.06172839506172839,14.814814814814813,0)" xlink:href="#dJ"/><use transform="matrix(0.06172839506172839,0,0,0.06172839506172839,29.629629629629626,0)" xlink:href="#dY"/></g><path fill="#834187" d="M44-68c0 29 11 47 38 47 30 0 42-19 51-41l28 9C148-21 126 4 82 4 31 4 10-29 12-85c3-77 74-140 146-93 12 8 15 23 18 40l-31 5c-1-22-13-36-36-36-52 0-65 49-65 101" id="dZ"/><g id="ah"><use transform="matrix(0.06172839506172839,0,0,0.06172839506172839,0,0)" xlink:href="#dX"/><use transform="matrix(0.06172839506172839,0,0,0.06172839506172839,14.814814814814813,0)" xlink:href="#dZ"/><use transform="matrix(0.06172839506172839,0,0,0.06172839506172839,25.925925925925924,0)" xlink:href="#dZ"/><use transform="matrix(0.06172839506172839,0,0,0.06172839506172839,37.03703703703704,0)" xlink:href="#dI"/><use transform="matrix(0.06172839506172839,0,0,0.06172839506172839,49.382716049382715,0)" xlink:href="#dO"/><use transform="matrix(0.06172839506172839,0,0,0.06172839506172839,60.49382716049382,0)" xlink:href="#dO"/></g><path fill="#834187" d="M66-151c12-25 30-51 66-40l-6 26C45-176 58-65 38 0H6l36-190h30" id="ea"/><path fill="#834187" d="M89 0H52L20-190h33L74-25l89-165h34" id="eb"/><g id="ai"><use transform="matrix(0.06172839506172839,0,0,0.06172839506172839,0,0)" xlink:href="#dY"/><use transform="matrix(0.06172839506172839,0,0,0.06172839506172839,6.172839506172839,0)" xlink:href="#dT"/><use transform="matrix(0.06172839506172839,0,0,0.06172839506172839,18.51851851851852,0)" xlink:href="#dS"/><use transform="matrix(0.06172839506172839,0,0,0.06172839506172839,24.691358024691358,0)" xlink:href="#dI"/><use transform="matrix(0.06172839506172839,0,0,0.06172839506172839,37.03703703703704,0)" xlink:href="#ea"/><use transform="matrix(0.06172839506172839,0,0,0.06172839506172839,44.382716049382715,0)" xlink:href="#dK"/><use transform="matrix(0.06172839506172839,0,0,0.06172839506172839,56.72839506172839,0)" xlink:href="#dZ"/><use transform="matrix(0.06172839506172839,0,0,0.06172839506172839,67.8395061728395,0)" xlink:href="#dS"/><use transform="matrix(0.06172839506172839,0,0,0.06172839506172839,74.01234567901234,0)" xlink:href="#dN"/><use transform="matrix(0.06172839506172839,0,0,0.06172839506172839,78.88888888888889,0)" xlink:href="#eb"/><use transform="matrix(0.06172839506172839,0,0,0.06172839506172839,90,0)" xlink:href="#dI"/></g><path fill="#834187" d="M248-139C247-14 144 9 11 0l48-248c105-6 190 8 189 109zm-34 0c1-70-52-87-126-82L50-27c98 7 163-21 164-112" id="ec"/><path fill="#834187" d="M68-162c25-46 127-43 121 31C183-60 169 1 98 4 69 5 53-11 43-31L36 0H5l52-261h31zm88 36c2-27-9-43-34-43-55 0-70 51-70 103 0 29 15 45 43 46 52 0 58-58 61-106" id="ed"/><g id="aj"><use transform="matrix(0.06172839506172839,0,0,0.06172839506172839,0,0)" xlink:href="#ec"/><use transform="matrix(0.06172839506172839,0,0,0.06172839506172839,15.987654320987653,0)" xlink:href="#dK"/><use transform="matrix(0.06172839506172839,0,0,0.06172839506172839,28.333333333333332,0)" xlink:href="#dS"/><use transform="matrix(0.06172839506172839,0,0,0.06172839506172839,34.50617283950617,0)" xlink:href="#dK"/><use transform="matrix(0.06172839506172839,0,0,0.06172839506172839,46.85185185185185,0)" xlink:href="#dV"/><use transform="matrix(0.06172839506172839,0,0,0.06172839506172839,58.33333333333333,0)" xlink:href="#dK"/><use transform="matrix(0.06172839506172839,0,0,0.06172839506172839,70.67901234567901,0)" xlink:href="#ed"/><use transform="matrix(0.06172839506172839,0,0,0.06172839506172839,83.0246913580247,0)" xlink:href="#dQ"/><use transform="matrix(0.06172839506172839,0,0,0.06172839506172839,87.90123456790124,0)" xlink:href="#dI"/></g><filter id="ak" filterUnits="objectBoundingBox" x="-.05" y="-.04" width="1.11" height="1.11"><feOffset result="offOut" in="SourceAlpha" dy="2"/><feGaussianBlur result="blurOut" in="offOut" stdDeviation="3.5"/><feColorMatrix result="colorOut" in="blurOut" values="0 0 0 0 0 0 0 0 0 0 0 0 0 0 0 0 0 0 0.5019607843137255 0"/><feBlend in="SourceGraphic" in2="colorOut"/></filter><path fill="#c92d39" d="M185-189c-5-48-123-54-124 2 14 75 158 14 163 119 3 78-121 87-175 55-17-10-28-26-33-46l33-7c5 56 141 63 141-1 0-78-155-14-162-118-5-82 145-84 179-34 5 7 8 16 11 25" id="ee"/><path fill="#c92d39" d="M140-251c81 0 123 46 123 126C263-53 228-8 163 1c7 30 30 48 69 40v23c-55 16-95-15-103-61C56-3 17-48 17-125c0-80 42-126 123-126zm0 227c63 0 89-41 89-101s-29-99-89-99c-61 0-89 39-89 99S79-25 140-24" id="ef"/><path fill="#c92d39" d="M30 0v-248h33v221h125V0H30" id="eg"/><path fill="#c92d39" d="M24-231v-30h32v30H24zM24 0v-190h32V0H24" id="eh"/><path fill="#c92d39" d="M59-47c-2 24 18 29 38 22v24C64 9 27 4 27-40v-127H5v-23h24l9-43h21v43h35v23H59v120" id="ei"/><path fill="#c92d39" d="M100-194c63 0 86 42 84 106H49c0 40 14 67 53 68 26 1 43-12 49-29l28 8c-11 28-37 45-77 45C44 4 14-33 15-96c1-61 26-98 85-98zm52 81c6-60-76-77-97-28-3 7-6 17-6 28h103" id="ej"/><g id="al"><use transform="matrix(0.06234567901234567,0,0,0.06234567901234567,0,0)" xlink:href="#ee"/><use transform="matrix(0.06234567901234567,0,0,0.06234567901234567,14.96296296296296,0)" xlink:href="#ef"/><use transform="matrix(0.06234567901234567,0,0,0.06234567901234567,32.419753086419746,0)" xlink:href="#eg"/><use transform="matrix(0.06234567901234567,0,0,0.06234567901234567,44.88888888888888,0)" xlink:href="#eh"/><use transform="matrix(0.06234567901234567,0,0,0.06234567901234567,49.814197530864185,0)" xlink:href="#ei"/><use transform="matrix(0.06234567901234567,0,0,0.06234567901234567,56.04876543209875,0)" xlink:href="#ej"/></g><path fill="#333" d="M24-248c120-7 223 5 221 122C244-46 201 0 124 0H24v-248zM76-40c74 7 117-18 117-86 0-67-45-88-117-82v168" id="ek"/><path fill="#333" d="M185-48c-13 30-37 53-82 52C43 2 14-33 14-96s30-98 90-98c62 0 83 45 84 108H66c0 31 8 55 39 56 18 0 30-7 34-22zm-45-69c5-46-57-63-70-21-2 6-4 13-4 21h74" id="el"/><path fill="#333" d="M128 0H69L1-190h53L99-40l48-150h52" id="em"/><path fill="#333" d="M25 0v-261h50V0H25" id="en"/><path fill="#333" d="M110-194c64 0 96 36 96 99 0 64-35 99-97 99-61 0-95-36-95-99 0-62 34-99 96-99zm-1 164c35 0 45-28 45-65 0-40-10-65-43-65-34 0-45 26-45 65 0 36 10 65 43 65" id="eo"/><path fill="#333" d="M135-194c53 0 70 44 70 98 0 56-19 98-73 100-31 1-45-17-59-34 3 33 2 69 2 105H25l-1-265h48c2 10 0 23 3 31 11-24 29-35 60-35zM114-30c33 0 39-31 40-66 0-38-9-64-40-64-56 0-55 130 0 130" id="ep"/><path fill="#333" d="M220-157c-53 9-28 100-34 157h-49v-107c1-27-5-49-29-50C55-147 81-57 75 0H25l-1-190h47c2 12-1 28 3 38 10-53 101-56 108 0 13-22 24-43 59-42 82 1 51 116 57 194h-49v-107c-1-25-5-48-29-50" id="eq"/><path fill="#333" d="M135-194c87-1 58 113 63 194h-50c-7-57 23-157-34-157-59 0-34 97-39 157H25l-1-190h47c2 12-1 28 3 38 12-26 28-41 61-42" id="er"/><path fill="#333" d="M115-3C79 11 28 4 28-45v-112H4v-33h27l15-45h31v45h36v33H77v99c-1 23 16 31 38 25v30" id="es"/><g id="am"><use transform="matrix(0.087037037037037,0,0,0.087037037037037,0,0)" xlink:href="#ek"/><use transform="matrix(0.087037037037037,0,0,0.087037037037037,22.54259259259258,0)" xlink:href="#el"/><use transform="matrix(0.087037037037037,0,0,0.087037037037037,39.949999999999974,0)" xlink:href="#em"/><use transform="matrix(0.087037037037037,0,0,0.087037037037037,57.35740740740737,0)" xlink:href="#el"/><use transform="matrix(0.087037037037037,0,0,0.087037037037037,74.76481481481477,0)" xlink:href="#en"/><use transform="matrix(0.087037037037037,0,0,0.087037037037037,83.46851851851847,0)" xlink:href="#eo"/><use transform="matrix(0.087037037037037,0,0,0.087037037037037,102.52962962962957,0)" xlink:href="#ep"/><use transform="matrix(0.087037037037037,0,0,0.087037037037037,121.59074074074067,0)" xlink:href="#eq"/><use transform="matrix(0.087037037037037,0,0,0.087037037037037,149.44259259259252,0)" xlink:href="#el"/><use transform="matrix(0.087037037037037,0,0,0.087037037037037,166.8499999999999,0)" xlink:href="#er"/><use transform="matrix(0.087037037037037,0,0,0.087037037037037,185.911111111111,0)" xlink:href="#es"/></g><path fill="#333" d="M76-208v77h127v40H76V0H24v-248h183v40H76" id="et"/><path fill="#333" d="M231 0h-52l-39-155L100 0H48L-1-190h46L77-45c9-52 24-97 36-145h53l37 145 32-145h46" id="eu"/><g id="an"><use transform="matrix(0.087037037037037,0,0,0.087037037037037,0,0)" xlink:href="#et"/><use transform="matrix(0.087037037037037,0,0,0.087037037037037,19.061111111111103,0)" xlink:href="#en"/><use transform="matrix(0.087037037037037,0,0,0.087037037037037,27.7648148148148,0)" xlink:href="#eo"/><use transform="matrix(0.087037037037037,0,0,0.087037037037037,46.8259259259259,0)" xlink:href="#eu"/></g><path fill="#333" d="M24-248c93 1 206-16 204 79-1 75-69 88-152 82V0H24v-248zm52 121c47 0 100 7 100-41 0-47-54-39-100-39v80" id="ev"/><path fill="#333" d="M133-34C117-15 103 5 69 4 32 3 11-16 11-54c-1-60 55-63 116-61 1-26-3-47-28-47-18 1-26 9-28 27l-52-2c7-38 36-58 82-57s74 22 75 68l1 82c-1 14 12 18 25 15v27c-30 8-71 5-69-32zm-48 3c29 0 43-24 42-57-32 0-66-3-65 30 0 17 8 27 23 27" id="ew"/><path fill="#333" d="M114-157C55-157 80-60 75 0H25v-261h50l-1 109c12-26 28-41 61-42 86-1 58 113 63 194h-50c-7-57 23-157-34-157" id="ex"/><g id="ao"><use transform="matrix(0.087037037037037,0,0,0.087037037037037,0,0)" xlink:href="#ev"/><use transform="matrix(0.087037037037037,0,0,0.087037037037037,20.88888888888888,0)" xlink:href="#ew"/><use transform="matrix(0.087037037037037,0,0,0.087037037037037,38.296296296296276,0)" xlink:href="#es"/><use transform="matrix(0.087037037037037,0,0,0.087037037037037,48.653703703703684,0)" xlink:href="#ex"/></g><path fill="#333" d="M127-220V0H93v-220H8v-28h204v28h-85" id="ey"/><path fill="#333" d="M30 0v-248h187v28H63v79h144v27H63v87h162V0H30" id="ez"/><path fill="#333" d="M205 0l-28-72H64L36 0H1l101-248h38L239 0h-34zm-38-99l-47-123c-12 45-31 82-46 123h93" id="eA"/><path fill="#333" d="M240 0l2-218c-23 76-54 145-80 218h-23L58-218 59 0H30v-248h44l77 211c21-75 51-140 76-211h43V0h-30" id="eB"/><g id="ap"><use transform="matrix(0.05,0,0,0.05,0,0)" xlink:href="#ey"/><use transform="matrix(0.05,0,0,0.05,10.950000000000001,0)" xlink:href="#ez"/><use transform="matrix(0.05,0,0,0.05,22.950000000000003,0)" xlink:href="#eA"/><use transform="matrix(0.05,0,0,0.05,34.95,0)" xlink:href="#eB"/></g><path fill="#333" d="M160-131c35 5 61 23 61 61C221 17 115-2 30 0v-248c76 3 177-17 177 60 0 33-19 50-47 57zm-97-11c50-1 110 9 110-42 0-47-63-36-110-37v79zm0 115c55-2 124 14 124-45 0-56-70-42-124-44v89" id="eC"/><path fill="#333" d="M233-177c-1 41-23 64-60 70L243 0h-38l-65-103H63V0H30v-248c88 3 205-21 203 71zM63-129c60-2 137 13 137-47 0-61-80-42-137-45v92" id="eD"/><path fill="#333" d="M185-189c-5-48-123-54-124 2 14 75 158 14 163 119 3 78-121 87-175 55-17-10-28-26-33-46l33-7c5 56 141 63 141-1 0-78-155-14-162-118-5-82 145-84 179-34 5 7 8 16 11 25" id="eE"/><g id="aq"><use transform="matrix(0.05,0,0,0.05,0,0)" xlink:href="#eB"/><use transform="matrix(0.05,0,0,0.05,14.950000000000001,0)" xlink:href="#ez"/><use transform="matrix(0.05,0,0,0.05,26.950000000000003,0)" xlink:href="#eB"/><use transform="matrix(0.05,0,0,0.05,41.900000000000006,0)" xlink:href="#eC"/><use transform="matrix(0.05,0,0,0.05,53.900000000000006,0)" xlink:href="#ez"/><use transform="matrix(0.05,0,0,0.05,65.9,0)" xlink:href="#eD"/><use transform="matrix(0.05,0,0,0.05,78.85000000000001,0)" xlink:href="#eE"/></g><path fill="#19967d" d="M197 0v-115H63V0H30v-248h33v105h134v-105h34V0h-34" id="eF"/><path fill="#19967d" d="M100-194c63 0 86 42 84 106H49c0 40 14 67 53 68 26 1 43-12 49-29l28 8c-11 28-37 45-77 45C44 4 14-33 15-96c1-61 26-98 85-98zm52 81c6-60-76-77-97-28-3 7-6 17-6 28h103" id="eG"/><path fill="#19967d" d="M117-194c89-4 53 116 60 194h-32v-121c0-31-8-49-39-48C34-167 62-67 57 0H25l-1-190h30c1 10-1 24 2 32 11-22 29-35 61-36" id="eH"/><path fill="#19967d" d="M114-163C36-179 61-72 57 0H25l-1-190h30c1 12-1 29 2 39 6-27 23-49 58-41v29" id="eI"/><path fill="#19967d" d="M179-190L93 31C79 59 56 82 12 73V49c39 6 53-20 64-50L1-190h34L92-34l54-156h33" id="eJ"/><g id="ar"><use transform="matrix(0.06790123456790123,0,0,0.06790123456790123,0,0)" xlink:href="#eF"/><use transform="matrix(0.06790123456790123,0,0,0.06790123456790123,17.586419753086417,0)" xlink:href="#eG"/><use transform="matrix(0.06790123456790123,0,0,0.06790123456790123,31.166666666666664,0)" xlink:href="#eH"/><use transform="matrix(0.06790123456790123,0,0,0.06790123456790123,44.74691358024691,0)" xlink:href="#eI"/><use transform="matrix(0.06790123456790123,0,0,0.06790123456790123,52.82716049382716,0)" xlink:href="#eJ"/></g><path fill="#19967d" d="M30 0v-248h33v221h125V0H30" id="eK"/><g id="as"><use transform="matrix(0.06790123456790123,0,0,0.06790123456790123,0,0)" xlink:href="#eK"/><use transform="matrix(0.06790123456790123,0,0,0.06790123456790123,13.580246913580247,0)" xlink:href="#eG"/></g><path fill="#19967d" d="M30 0v-248h187v28H63v79h144v27H63v87h162V0H30" id="eL"/><path fill="#19967d" d="M143 0L79-87 56-68V0H24v-261h32v163l83-92h37l-77 82L181 0h-38" id="eM"/><path fill="#19967d" d="M24-231v-30h32v30H24zM24 0v-190h32V0H24" id="eN"/><g id="at"><use transform="matrix(0.06790123456790123,0,0,0.06790123456790123,0,0)" xlink:href="#eL"/><use transform="matrix(0.06790123456790123,0,0,0.06790123456790123,16.296296296296294,0)" xlink:href="#eM"/><use transform="matrix(0.06790123456790123,0,0,0.06790123456790123,28.518518518518515,0)" xlink:href="#eN"/><use transform="matrix(0.06790123456790123,0,0,0.06790123456790123,33.882716049382715,0)" xlink:href="#eH"/></g><path fill="#19967d" d="M194 0L95-120 63-95V0H30v-248h33v124l119-124h40L117-140 236 0h-42" id="eO"/><path fill="#19967d" d="M141-36C126-15 110 5 73 4 37 3 15-17 15-53c-1-64 63-63 125-63 3-35-9-54-41-54-24 1-41 7-42 31l-33-3c5-37 33-52 76-52 45 0 72 20 72 64v82c-1 20 7 32 28 27v20c-31 9-61-2-59-35zM48-53c0 20 12 33 32 33 41-3 63-29 60-74-43 2-92-5-92 41" id="eP"/><path fill="#19967d" d="M115-194c55 1 70 41 70 98S169 2 115 4C84 4 66-9 55-30l1 105H24l-1-265h31l2 30c10-21 28-34 59-34zm-8 174c40 0 45-34 45-75s-6-73-45-74c-42 0-51 32-51 76 0 43 10 73 51 73" id="eQ"/><path fill="#19967d" d="M24 0v-261h32V0H24" id="eR"/><g id="au"><use transform="matrix(0.06790123456790123,0,0,0.06790123456790123,0,0)" xlink:href="#eO"/><use transform="matrix(0.06790123456790123,0,0,0.06790123456790123,16.296296296296294,0)" xlink:href="#eP"/><use transform="matrix(0.06790123456790123,0,0,0.06790123456790123,29.87654320987654,0)" xlink:href="#eQ"/><use transform="matrix(0.06790123456790123,0,0,0.06790123456790123,43.456790123456784,0)" xlink:href="#eR"/><use transform="matrix(0.06790123456790123,0,0,0.06790123456790123,48.82098765432098,0)" xlink:href="#eP"/><use transform="matrix(0.06790123456790123,0,0,0.06790123456790123,62.40123456790122,0)" xlink:href="#eH"/></g><path fill="#19967d" d="M140-251c81 0 123 46 123 126C263-46 219 4 140 4 59 4 17-45 17-125s42-126 123-126zm0 227c63 0 89-41 89-101s-29-99-89-99c-61 0-89 39-89 99S79-25 140-24" id="eS"/><path fill="#19967d" d="M33 0v-38h34V0H33" id="eT"/><path fill="#19967d" d="M153-248C145-148 188 4 80 4 36 3 13-21 6-62l32-5c4 25 16 42 43 43 27 0 39-20 39-49v-147H72v-28h81" id="eU"/><g id="av"><use transform="matrix(0.06790123456790123,0,0,0.06790123456790123,0,0)" xlink:href="#eS"/><use transform="matrix(0.06790123456790123,0,0,0.06790123456790123,19.012345679012345,0)" xlink:href="#eT"/><use transform="matrix(0.06790123456790123,0,0,0.06790123456790123,25.80246913580247,0)" xlink:href="#eU"/><use transform="matrix(0.06790123456790123,0,0,0.06790123456790123,38.02469135802469,0)" xlink:href="#eT"/></g><path fill="#19967d" d="M190 0L58-211 59 0H30v-248h39L202-35l-2-213h31V0h-41" id="eV"/><path fill="#19967d" d="M85-194c31 0 48 13 60 33l-1-100h32l1 261h-30c-2-10 0-23-3-31C134-8 116 4 85 4 32 4 16-35 15-94c0-66 23-100 70-100zm9 24c-40 0-46 34-46 75 0 40 6 74 45 74 42 0 51-32 51-76 0-42-9-74-50-73" id="eW"/><path fill="#19967d" d="M115-194c53 0 69 39 70 98 0 66-23 100-70 100C84 3 66-7 56-30L54 0H23l1-261h32v101c10-23 28-34 59-34zm-8 174c40 0 45-34 45-75 0-40-5-75-45-74-42 0-51 32-51 76 0 43 10 73 51 73" id="eX"/><path fill="#19967d" d="M100-194c62-1 85 37 85 99 1 63-27 99-86 99S16-35 15-95c0-66 28-99 85-99zM99-20c44 1 53-31 53-75 0-43-8-75-51-75s-53 32-53 75 10 74 51 75" id="eY"/><g id="aw"><use transform="matrix(0.06790123456790123,0,0,0.06790123456790123,0,0)" xlink:href="#eV"/><use transform="matrix(0.06790123456790123,0,0,0.06790123456790123,17.586419753086417,0)" xlink:href="#eW"/><use transform="matrix(0.06790123456790123,0,0,0.06790123456790123,31.166666666666664,0)" xlink:href="#eG"/><use transform="matrix(0.06790123456790123,0,0,0.06790123456790123,44.74691358024691,0)" xlink:href="#eX"/><use transform="matrix(0.06790123456790123,0,0,0.06790123456790123,58.32716049382716,0)" xlink:href="#eX"/><use transform="matrix(0.06790123456790123,0,0,0.06790123456790123,71.9074074074074,0)" xlink:href="#eN"/><use transform="matrix(0.06790123456790123,0,0,0.06790123456790123,77.2716049382716,0)" xlink:href="#eY"/></g></defs></g></svg>